M48
INCH,TZ
T1C0.0100
T2C0.0118
T3C0.0256
T4C0.0394
%
G90
G05
T1
X54331Y-37480
X55053Y-36654
X55053Y-36969
X55630Y-35394
X56530Y-35980
X56530Y-37594
X56638Y-37722
X56654Y-41378
X56657Y-35872
X56854Y-39768
X56874Y-35872
X56894Y-37722
X57002Y-35980
X57002Y-37594
X57248Y-40122
X58228Y-40472
X58228Y-41575
X58268Y-38071
X58346Y-36378
X59055Y-36535
X59055Y-42992
X60236Y-36693
T2
X56575Y-36575
X56575Y-36969
X56772Y-36772
X56969Y-36575
X56969Y-36969
T3
X58673Y-35453
X58673Y-43287
X59437Y-35453
X59437Y-43287
T4
X62205Y-37795
X62205Y-38583
X62205Y-39370
X62205Y-40157
X62205Y-40945
M30
