G04 #@! TF.GenerationSoftware,KiCad,Pcbnew,9.0.3*
G04 #@! TF.CreationDate,2026-03-05T20:45:27-08:00*
G04 #@! TF.ProjectId,harp.peripheral.poke-port,68617270-2e70-4657-9269-70686572616c,rev?*
G04 #@! TF.SameCoordinates,Original*
G04 #@! TF.FileFunction,Copper,L1,Top*
G04 #@! TF.FilePolarity,Positive*
%FSLAX46Y46*%
G04 Gerber Fmt 4.6, Leading zero omitted, Abs format (unit mm)*
G04 Created by KiCad (PCBNEW 9.0.3) date 2026-03-05 20:45:27*
%MOMM*%
%LPD*%
G01*
G04 APERTURE LIST*
G04 Aperture macros list*
%AMRoundRect*
0 Rectangle with rounded corners*
0 $1 Rounding radius*
0 $2 $3 $4 $5 $6 $7 $8 $9 X,Y pos of 4 corners*
0 Add a 4 corners polygon primitive as box body*
4,1,4,$2,$3,$4,$5,$6,$7,$8,$9,$2,$3,0*
0 Add four circle primitives for the rounded corners*
1,1,$1+$1,$2,$3*
1,1,$1+$1,$4,$5*
1,1,$1+$1,$6,$7*
1,1,$1+$1,$8,$9*
0 Add four rect primitives between the rounded corners*
20,1,$1+$1,$2,$3,$4,$5,0*
20,1,$1+$1,$4,$5,$6,$7,0*
20,1,$1+$1,$6,$7,$8,$9,0*
20,1,$1+$1,$8,$9,$2,$3,0*%
G04 Aperture macros list end*
G04 #@! TA.AperFunction,SMDPad,CuDef*
%ADD10C,0.500000*%
G04 #@! TD*
G04 #@! TA.AperFunction,SMDPad,CuDef*
%ADD11RoundRect,0.140000X-0.170000X0.140000X-0.170000X-0.140000X0.170000X-0.140000X0.170000X0.140000X0*%
G04 #@! TD*
G04 #@! TA.AperFunction,SMDPad,CuDef*
%ADD12RoundRect,0.250000X-0.475000X0.250000X-0.475000X-0.250000X0.475000X-0.250000X0.475000X0.250000X0*%
G04 #@! TD*
G04 #@! TA.AperFunction,SMDPad,CuDef*
%ADD13R,0.280000X0.280000*%
G04 #@! TD*
G04 #@! TA.AperFunction,SMDPad,CuDef*
%ADD14O,0.850000X0.280000*%
G04 #@! TD*
G04 #@! TA.AperFunction,SMDPad,CuDef*
%ADD15R,0.230000X0.600000*%
G04 #@! TD*
G04 #@! TA.AperFunction,SMDPad,CuDef*
%ADD16R,0.250000X0.700000*%
G04 #@! TD*
G04 #@! TA.AperFunction,ComponentPad*
%ADD17C,0.600000*%
G04 #@! TD*
G04 #@! TA.AperFunction,SMDPad,CuDef*
%ADD18R,0.650000X0.900000*%
G04 #@! TD*
G04 #@! TA.AperFunction,SMDPad,CuDef*
%ADD19R,1.700000X2.150000*%
G04 #@! TD*
G04 #@! TA.AperFunction,SMDPad,CuDef*
%ADD20RoundRect,0.200000X-0.200000X-0.275000X0.200000X-0.275000X0.200000X0.275000X-0.200000X0.275000X0*%
G04 #@! TD*
G04 #@! TA.AperFunction,SMDPad,CuDef*
%ADD21RoundRect,0.200000X0.200000X0.275000X-0.200000X0.275000X-0.200000X-0.275000X0.200000X-0.275000X0*%
G04 #@! TD*
G04 #@! TA.AperFunction,SMDPad,CuDef*
%ADD22RoundRect,0.135000X-0.185000X0.135000X-0.185000X-0.135000X0.185000X-0.135000X0.185000X0.135000X0*%
G04 #@! TD*
G04 #@! TA.AperFunction,SMDPad,CuDef*
%ADD23RoundRect,0.225000X-0.250000X0.225000X-0.250000X-0.225000X0.250000X-0.225000X0.250000X0.225000X0*%
G04 #@! TD*
G04 #@! TA.AperFunction,SMDPad,CuDef*
%ADD24RoundRect,0.250000X0.250000X0.475000X-0.250000X0.475000X-0.250000X-0.475000X0.250000X-0.475000X0*%
G04 #@! TD*
G04 #@! TA.AperFunction,SMDPad,CuDef*
%ADD25RoundRect,0.225000X0.225000X0.250000X-0.225000X0.250000X-0.225000X-0.250000X0.225000X-0.250000X0*%
G04 #@! TD*
G04 #@! TA.AperFunction,SMDPad,CuDef*
%ADD26R,0.900000X1.200000*%
G04 #@! TD*
G04 #@! TA.AperFunction,SMDPad,CuDef*
%ADD27RoundRect,0.250000X0.475000X-0.250000X0.475000X0.250000X-0.475000X0.250000X-0.475000X-0.250000X0*%
G04 #@! TD*
G04 #@! TA.AperFunction,SMDPad,CuDef*
%ADD28RoundRect,0.075000X-0.550000X-0.075000X0.550000X-0.075000X0.550000X0.075000X-0.550000X0.075000X0*%
G04 #@! TD*
G04 #@! TA.AperFunction,ComponentPad*
%ADD29C,1.800000*%
G04 #@! TD*
G04 #@! TA.AperFunction,ComponentPad*
%ADD30C,1.240000*%
G04 #@! TD*
G04 #@! TA.AperFunction,ViaPad*
%ADD31C,0.457200*%
G04 #@! TD*
G04 #@! TA.AperFunction,Conductor*
%ADD32C,0.200000*%
G04 #@! TD*
G04 #@! TA.AperFunction,Conductor*
%ADD33C,0.250000*%
G04 #@! TD*
G04 #@! TA.AperFunction,Conductor*
%ADD34C,0.400000*%
G04 #@! TD*
G04 #@! TA.AperFunction,Conductor*
%ADD35C,0.152400*%
G04 #@! TD*
G04 #@! TA.AperFunction,Conductor*
%ADD36C,0.280000*%
G04 #@! TD*
G04 #@! TA.AperFunction,Conductor*
%ADD37C,0.600000*%
G04 #@! TD*
G04 #@! TA.AperFunction,Conductor*
%ADD38C,0.350000*%
G04 #@! TD*
G04 #@! TA.AperFunction,Conductor*
%ADD39C,0.300000*%
G04 #@! TD*
G04 APERTURE END LIST*
D10*
G04 #@! TO.P,REF\u002A\u002A,*
G04 #@! TO.N,*
X153000000Y-105900000D03*
G04 #@! TD*
D11*
G04 #@! TO.P,C7,1*
G04 #@! TO.N,Net-(U1-FB)*
X145410000Y-100330000D03*
G04 #@! TO.P,C7,2*
G04 #@! TO.N,GND*
X145410000Y-101290000D03*
G04 #@! TD*
D12*
G04 #@! TO.P,C4,1*
G04 #@! TO.N,GND*
X153000000Y-94350000D03*
G04 #@! TO.P,C4,2*
G04 #@! TO.N,+5V*
X153000000Y-96250000D03*
G04 #@! TD*
D13*
G04 #@! TO.P,U1,1,L1*
G04 #@! TO.N,Net-(U1-L1)*
X142440000Y-92400000D03*
D14*
X142725000Y-92400000D03*
D13*
G04 #@! TO.P,U1,2,VIN*
G04 #@! TO.N,VPP*
X142440000Y-92900000D03*
D14*
X142725000Y-92900000D03*
D13*
G04 #@! TO.P,U1,3,EN*
X142440000Y-93400000D03*
D14*
X142725000Y-93400000D03*
D13*
G04 #@! TO.P,U1,4,PS/SYNC*
G04 #@! TO.N,GND*
X142440000Y-93900000D03*
D14*
X142725000Y-93900000D03*
D13*
G04 #@! TO.P,U1,5,PG*
G04 #@! TO.N,unconnected-(U1-PG-Pad5)_1*
X142440000Y-94400000D03*
D14*
G04 #@! TO.N,unconnected-(U1-PG-Pad5)*
X142725000Y-94400000D03*
G04 #@! TO.P,U1,6,VAUX*
G04 #@! TO.N,Net-(U1-VAUX)*
X145675000Y-94400000D03*
D13*
X145960000Y-94400000D03*
D14*
G04 #@! TO.P,U1,7,GND*
G04 #@! TO.N,GND*
X145675000Y-93900000D03*
D13*
X145960000Y-93900000D03*
D14*
G04 #@! TO.P,U1,8,FB*
G04 #@! TO.N,Net-(U1-FB)*
X145675000Y-93400000D03*
D13*
X145960000Y-93400000D03*
D14*
G04 #@! TO.P,U1,9,VOUT*
G04 #@! TO.N,+5V*
X145675000Y-92900000D03*
D13*
X145960000Y-92900000D03*
D14*
G04 #@! TO.P,U1,10,L2*
G04 #@! TO.N,Net-(U1-L2)*
X145675000Y-92400000D03*
D13*
X145960000Y-92400000D03*
D15*
G04 #@! TO.P,U1,11,PGND*
G04 #@! TO.N,GND*
X143600000Y-91975000D03*
D16*
X143600000Y-91975000D03*
D15*
X143600000Y-94825000D03*
D16*
X143600000Y-94825000D03*
D17*
X143700000Y-92900000D03*
X143700000Y-93900000D03*
D18*
X143765000Y-92840000D03*
X143765000Y-93960000D03*
D15*
X144000000Y-91975000D03*
D16*
X144000000Y-91975000D03*
D15*
X144000000Y-94825000D03*
D16*
X144000000Y-94825000D03*
D17*
X144200000Y-93400000D03*
D19*
X144200000Y-93400000D03*
D15*
X144400000Y-91975000D03*
D16*
X144400000Y-91975000D03*
D15*
X144400000Y-94825000D03*
D16*
X144400000Y-94825000D03*
D18*
X144635000Y-92840000D03*
X144635000Y-93960000D03*
D17*
X144700000Y-92900000D03*
X144700000Y-93900000D03*
D15*
X144800000Y-91975000D03*
D16*
X144800000Y-91975000D03*
D15*
X144800000Y-94825000D03*
D16*
X144800000Y-94825000D03*
G04 #@! TD*
D20*
G04 #@! TO.P,R1,1*
G04 #@! TO.N,Net-(U3-1B)*
X148775000Y-104200000D03*
G04 #@! TO.P,R1,2*
G04 #@! TO.N,/TTL_POKE*
X150425000Y-104200000D03*
G04 #@! TD*
G04 #@! TO.P,R2,1*
G04 #@! TO.N,Net-(U3-2B)*
X148875000Y-106000000D03*
G04 #@! TO.P,R2,2*
G04 #@! TO.N,/TTL_POKE*
X150525000Y-106000000D03*
G04 #@! TD*
D12*
G04 #@! TO.P,C5,1*
G04 #@! TO.N,GND*
X150800000Y-93650000D03*
G04 #@! TO.P,C5,2*
G04 #@! TO.N,+5V*
X150800000Y-95550000D03*
G04 #@! TD*
D20*
G04 #@! TO.P,R4,1*
G04 #@! TO.N,/POKE*
X149175000Y-108200000D03*
G04 #@! TO.P,R4,2*
G04 #@! TO.N,GND*
X150825000Y-108200000D03*
G04 #@! TD*
D21*
G04 #@! TO.P,R3,1*
G04 #@! TO.N,+5V*
X150825000Y-91800000D03*
G04 #@! TO.P,R3,2*
G04 #@! TO.N,Net-(R3-Pad2)*
X149175000Y-91800000D03*
G04 #@! TD*
D22*
G04 #@! TO.P,R6,1*
G04 #@! TO.N,Net-(U1-FB)*
X144410000Y-99400000D03*
G04 #@! TO.P,R6,2*
G04 #@! TO.N,GND*
X144410000Y-100420000D03*
G04 #@! TD*
D23*
G04 #@! TO.P,C8,1*
G04 #@! TO.N,+5V*
X141800000Y-104525000D03*
G04 #@! TO.P,C8,2*
G04 #@! TO.N,GND*
X141800000Y-106075000D03*
G04 #@! TD*
D24*
G04 #@! TO.P,C6,1*
G04 #@! TO.N,VPP*
X141050000Y-95200000D03*
G04 #@! TO.P,C6,2*
G04 #@! TO.N,GND*
X139150000Y-95200000D03*
G04 #@! TD*
D25*
G04 #@! TO.P,C1,1*
G04 #@! TO.N,Net-(U1-VAUX)*
X146260000Y-96790000D03*
G04 #@! TO.P,C1,2*
G04 #@! TO.N,GND*
X144710000Y-96790000D03*
G04 #@! TD*
D10*
G04 #@! TO.P,REF\u002A\u002A,*
G04 #@! TO.N,*
X140000000Y-104900000D03*
G04 #@! TD*
D12*
G04 #@! TO.P,C3,1*
G04 #@! TO.N,GND*
X148800000Y-93650000D03*
G04 #@! TO.P,C3,2*
G04 #@! TO.N,+5V*
X148800000Y-95550000D03*
G04 #@! TD*
D26*
G04 #@! TO.P,L1,1,1*
G04 #@! TO.N,Net-(U1-L1)*
X142835000Y-89690000D03*
G04 #@! TO.P,L1,2,2*
G04 #@! TO.N,Net-(U1-L2)*
X145535000Y-89690000D03*
G04 #@! TD*
D22*
G04 #@! TO.P,R5,1*
G04 #@! TO.N,+5V*
X145410000Y-98400000D03*
G04 #@! TO.P,R5,2*
G04 #@! TO.N,Net-(U1-FB)*
X145410000Y-99420000D03*
G04 #@! TD*
D27*
G04 #@! TO.P,C2,1*
G04 #@! TO.N,VPP*
X140985000Y-93140000D03*
G04 #@! TO.P,C2,2*
G04 #@! TO.N,GND*
X140985000Y-91240000D03*
G04 #@! TD*
D28*
G04 #@! TO.P,U3,1,VCCA*
G04 #@! TO.N,+5V*
X143900000Y-103150000D03*
G04 #@! TO.P,U3,2,1A*
G04 #@! TO.N,/POKE*
X143900000Y-103650000D03*
G04 #@! TO.P,U3,3,2A*
X143900000Y-104150000D03*
G04 #@! TO.P,U3,4,GND*
G04 #@! TO.N,GND*
X143900000Y-104650000D03*
G04 #@! TO.P,U3,5,DIR*
G04 #@! TO.N,+5V*
X146700000Y-104650000D03*
G04 #@! TO.P,U3,6,2B*
G04 #@! TO.N,Net-(U3-2B)*
X146700000Y-104150000D03*
G04 #@! TO.P,U3,7,1B*
G04 #@! TO.N,Net-(U3-1B)*
X146700000Y-103650000D03*
G04 #@! TO.P,U3,8,VCCB*
G04 #@! TO.N,+5V*
X146700000Y-103150000D03*
G04 #@! TD*
D29*
G04 #@! TO.P,J1,*
G04 #@! TO.N,*
X158000000Y-96000000D03*
X158000000Y-104000000D03*
G04 #@! TO.P,J1,1,Pin_1*
G04 #@! TO.N,/TTL_POKE*
X158000000Y-102000000D03*
G04 #@! TO.P,J1,2,Pin_2*
G04 #@! TO.N,VPP*
X158000000Y-100000000D03*
G04 #@! TO.P,J1,3,Pin_3*
G04 #@! TO.N,GND*
X158000000Y-98000000D03*
G04 #@! TD*
D10*
G04 #@! TO.P,REF\u002A\u002A,*
G04 #@! TO.N,*
X150000000Y-88000000D03*
G04 #@! TD*
D30*
G04 #@! TO.P,U2,A*
G04 #@! TO.N,Net-(R3-Pad2)*
X149030000Y-90050000D03*
G04 #@! TO.P,U2,C*
G04 #@! TO.N,+5V*
X150970000Y-109950000D03*
G04 #@! TO.P,U2,E*
G04 #@! TO.N,/POKE*
X149030000Y-109950000D03*
G04 #@! TO.P,U2,K*
G04 #@! TO.N,GND*
X150970000Y-90050000D03*
G04 #@! TD*
D31*
G04 #@! TO.N,GND*
X150000000Y-109200000D03*
X138000000Y-95200000D03*
X144785000Y-91390000D03*
X144410000Y-101010000D03*
X145410000Y-101910000D03*
X141300000Y-89900000D03*
X148200000Y-92400000D03*
X150000000Y-92800000D03*
X144510000Y-95815000D03*
X143860000Y-95815000D03*
X143585000Y-91390000D03*
X144785000Y-95490000D03*
X144460000Y-91115000D03*
X153000000Y-93200000D03*
X143585000Y-95490000D03*
X143900000Y-105100000D03*
X143910000Y-91115000D03*
G04 #@! TO.N,VPP*
X139835000Y-93900000D03*
X139835000Y-93100000D03*
G04 #@! TO.N,+5V*
X147900000Y-105600000D03*
X148000000Y-96700000D03*
X147900000Y-102800000D03*
G04 #@! TD*
D32*
G04 #@! TO.N,GND*
X141300000Y-89900000D02*
X141300000Y-90925000D01*
X138000000Y-95200000D02*
X139150000Y-95200000D01*
X144510000Y-95815000D02*
X144385000Y-95690000D01*
X143900000Y-104650000D02*
X143900000Y-105100000D01*
D33*
X143910000Y-91115000D02*
X143985000Y-91190000D01*
X144785000Y-91965000D02*
X144785000Y-91390000D01*
D32*
X143985000Y-95690000D02*
X143985000Y-94815000D01*
D34*
X153000000Y-93200000D02*
X153000000Y-94350000D01*
D35*
X143585000Y-94815000D02*
X143585000Y-95490000D01*
D32*
X150000000Y-108600000D02*
X150400000Y-108200000D01*
X144385000Y-95690000D02*
X144385000Y-94815000D01*
X141300000Y-90925000D02*
X140985000Y-91240000D01*
X143150000Y-104650000D02*
X141800000Y-106000000D01*
D34*
X148200000Y-92400000D02*
X148800000Y-93000000D01*
D32*
X145945000Y-93890000D02*
X144685000Y-93890000D01*
X143690000Y-93890000D02*
X143750000Y-93950000D01*
X150400000Y-108200000D02*
X150825000Y-108200000D01*
X145410000Y-101910000D02*
X145410000Y-101290000D01*
D33*
X144385000Y-91190000D02*
X144385000Y-91965000D01*
D32*
X144785000Y-95490000D02*
X144785000Y-94815000D01*
X141800000Y-106000000D02*
X141800000Y-106075000D01*
X143900000Y-104650000D02*
X143150000Y-104650000D01*
D33*
X144460000Y-91115000D02*
X144385000Y-91190000D01*
D32*
X150600000Y-92800000D02*
X150000000Y-92800000D01*
X143860000Y-95815000D02*
X143985000Y-95690000D01*
X150800000Y-93000000D02*
X150600000Y-92800000D01*
X144710000Y-96790000D02*
X144785000Y-96715000D01*
X144785000Y-96715000D02*
X144785000Y-95490000D01*
X150800000Y-93650000D02*
X150800000Y-93000000D01*
X150000000Y-109200000D02*
X150000000Y-108600000D01*
D33*
X143585000Y-91965000D02*
X143585000Y-91390000D01*
X143985000Y-91190000D02*
X143985000Y-91965000D01*
D32*
X142710000Y-93890000D02*
X143690000Y-93890000D01*
D34*
X148800000Y-93000000D02*
X148800000Y-93650000D01*
D32*
G04 #@! TO.N,Net-(U1-VAUX)*
X145945000Y-94390000D02*
X145945000Y-96475000D01*
X145945000Y-96475000D02*
X146260000Y-96790000D01*
D36*
G04 #@! TO.N,VPP*
X142710000Y-93390000D02*
X141235000Y-93390000D01*
X141235000Y-93390000D02*
X140985000Y-93140000D01*
D37*
X140985000Y-93890000D02*
X140985000Y-94639000D01*
D36*
X141235000Y-92890000D02*
X140985000Y-93140000D01*
D37*
X140985000Y-93140000D02*
X140985000Y-93890000D01*
D36*
X142425000Y-92890000D02*
X141235000Y-92890000D01*
D37*
X140985000Y-94639000D02*
X140986000Y-94640000D01*
D36*
G04 #@! TO.N,+5V*
X148800000Y-95550000D02*
X148800000Y-96300000D01*
D38*
X147500000Y-102400000D02*
X147500000Y-98800000D01*
D39*
X147900000Y-105300000D02*
X147250000Y-104650000D01*
D32*
X147500000Y-96200000D02*
X148000000Y-96700000D01*
D39*
X141800000Y-104525000D02*
X141800000Y-103725000D01*
D38*
X152000000Y-107600000D02*
X152000000Y-108920000D01*
D36*
X151900000Y-96000000D02*
X152150000Y-96250000D01*
D39*
X147900000Y-105600000D02*
X147900000Y-105300000D01*
X141825000Y-103675000D02*
X142350000Y-103150000D01*
X146700000Y-103150000D02*
X143900000Y-103150000D01*
D36*
X151500000Y-91800000D02*
X151900000Y-92200000D01*
D38*
X147550000Y-98750000D02*
X147200000Y-98400000D01*
D39*
X147900000Y-102800000D02*
X147550000Y-103150000D01*
D38*
X151600000Y-107200000D02*
X152000000Y-107600000D01*
D36*
X150825000Y-91800000D02*
X151500000Y-91800000D01*
D39*
X147250000Y-104650000D02*
X146700000Y-104650000D01*
X141800000Y-103725000D02*
X141825000Y-103700000D01*
D38*
X147500000Y-98800000D02*
X147550000Y-98750000D01*
D39*
X147550000Y-103150000D02*
X146700000Y-103150000D01*
D36*
X151850000Y-95550000D02*
X151900000Y-95500000D01*
X148800000Y-95550000D02*
X150800000Y-95550000D01*
D38*
X152000000Y-108920000D02*
X150970000Y-109950000D01*
D32*
X147500000Y-94000217D02*
X147500000Y-96200000D01*
D36*
X148400000Y-96700000D02*
X148400000Y-97900000D01*
X151900000Y-95500000D02*
X151900000Y-96000000D01*
D39*
X142350000Y-103150000D02*
X143900000Y-103150000D01*
D38*
X148400000Y-107200000D02*
X151600000Y-107200000D01*
D36*
X148400000Y-97900000D02*
X147550000Y-98750000D01*
X148400000Y-96700000D02*
X148000000Y-96700000D01*
D38*
X147900000Y-105600000D02*
X147900000Y-106700000D01*
D39*
X141825000Y-103700000D02*
X141825000Y-103675000D01*
D36*
X150800000Y-95550000D02*
X151850000Y-95550000D01*
X151900000Y-92200000D02*
X151900000Y-95500000D01*
D38*
X147200000Y-98400000D02*
X145410000Y-98400000D01*
X147900000Y-102800000D02*
X147500000Y-102400000D01*
D36*
X148800000Y-96300000D02*
X148400000Y-96700000D01*
X152150000Y-96250000D02*
X153000000Y-96250000D01*
D38*
X147900000Y-106700000D02*
X148400000Y-107200000D01*
D32*
X146399783Y-92900000D02*
X147500000Y-94000217D01*
X145960000Y-92900000D02*
X146399783Y-92900000D01*
G04 #@! TO.N,Net-(U1-FB)*
X147100000Y-94100000D02*
X147095000Y-94100000D01*
X144410000Y-98090000D02*
X144700000Y-97800000D01*
X144410000Y-99400000D02*
X145390000Y-99400000D01*
X145410000Y-100330000D02*
X145410000Y-99420000D01*
X146385000Y-93390000D02*
X145660000Y-93390000D01*
X147095000Y-94100000D02*
X146385000Y-93390000D01*
X144700000Y-97800000D02*
X146600000Y-97800000D01*
X146600000Y-97800000D02*
X147100000Y-97300000D01*
X144410000Y-99400000D02*
X144410000Y-98090000D01*
X147100000Y-97300000D02*
X147100000Y-94100000D01*
D34*
G04 #@! TO.N,/TTL_POKE*
X154000000Y-102000000D02*
X158000000Y-102000000D01*
X150425000Y-104200000D02*
X151800000Y-104200000D01*
X150525000Y-104650000D02*
X150625000Y-104550000D01*
X151800000Y-104200000D02*
X154000000Y-102000000D01*
X150525000Y-106000000D02*
X150525000Y-104650000D01*
X150625000Y-104550000D02*
X150625000Y-104400000D01*
X150625000Y-104400000D02*
X150425000Y-104200000D01*
X150425000Y-104200000D02*
X150425000Y-104175000D01*
D39*
G04 #@! TO.N,Net-(U3-1B)*
X148100000Y-104200000D02*
X148775000Y-104200000D01*
X146700000Y-103650000D02*
X147550000Y-103650000D01*
X147550000Y-103650000D02*
X148100000Y-104200000D01*
G04 #@! TO.N,Net-(U3-2B)*
X147350000Y-104150000D02*
X147396600Y-104196600D01*
X148875000Y-105375000D02*
X148875000Y-106000000D01*
X148353400Y-105112196D02*
X148612196Y-105112196D01*
X147437805Y-104196601D02*
X148353400Y-105112196D01*
X148612196Y-105112196D02*
X148875000Y-105375000D01*
X146700000Y-104150000D02*
X147350000Y-104150000D01*
X147396600Y-104196600D02*
X147437805Y-104196601D01*
D32*
G04 #@! TO.N,Net-(R3-Pad2)*
X149030000Y-90050000D02*
X149030000Y-91655000D01*
X149030000Y-91655000D02*
X149175000Y-91800000D01*
G04 #@! TO.N,/POKE*
X148000000Y-108200000D02*
X145400000Y-105600000D01*
X149030000Y-108345000D02*
X149175000Y-108200000D01*
X144900000Y-103900000D02*
X144150000Y-103900000D01*
X143900000Y-104150000D02*
X144150000Y-103900000D01*
X145400000Y-104400000D02*
X144900000Y-103900000D01*
X149030000Y-109950000D02*
X149030000Y-108345000D01*
X145400000Y-105600000D02*
X145400000Y-104400000D01*
X144150000Y-103900000D02*
X143900000Y-103650000D01*
X149175000Y-108200000D02*
X148000000Y-108200000D01*
G04 #@! TD*
G04 #@! TA.AperFunction,Conductor*
G04 #@! TO.N,VPP*
G36*
X141628039Y-92709685D02*
G01*
X141673794Y-92762489D01*
X141685000Y-92814000D01*
X141685000Y-94066000D01*
X141665315Y-94133039D01*
X141612511Y-94178794D01*
X141561000Y-94190000D01*
X139609000Y-94190000D01*
X139541961Y-94170315D01*
X139496206Y-94117511D01*
X139485000Y-94066000D01*
X139485000Y-92814000D01*
X139504685Y-92746961D01*
X139557489Y-92701206D01*
X139609000Y-92690000D01*
X141561000Y-92690000D01*
X141628039Y-92709685D01*
G37*
G04 #@! TD.AperFunction*
G04 #@! TD*
G04 #@! TA.AperFunction,Conductor*
G04 #@! TO.N,Net-(U1-L1)*
G36*
X143028039Y-89709685D02*
G01*
X143073794Y-89762489D01*
X143085000Y-89814000D01*
X143085000Y-92266000D01*
X143065315Y-92333039D01*
X143012511Y-92378794D01*
X142961000Y-92390000D01*
X142509000Y-92390000D01*
X142441961Y-92370315D01*
X142396206Y-92317511D01*
X142385000Y-92266000D01*
X142385000Y-89814000D01*
X142404685Y-89746961D01*
X142457489Y-89701206D01*
X142509000Y-89690000D01*
X142961000Y-89690000D01*
X143028039Y-89709685D01*
G37*
G04 #@! TD.AperFunction*
G04 #@! TD*
G04 #@! TA.AperFunction,Conductor*
G04 #@! TO.N,Net-(U1-L2)*
G36*
X145928039Y-89809685D02*
G01*
X145973794Y-89862489D01*
X145985000Y-89914000D01*
X145985000Y-92366000D01*
X145965315Y-92433039D01*
X145912511Y-92478794D01*
X145861000Y-92490000D01*
X145424500Y-92490000D01*
X145421811Y-92489210D01*
X145419090Y-92489882D01*
X145388483Y-92479424D01*
X145357461Y-92470315D01*
X145355626Y-92468197D01*
X145352973Y-92467291D01*
X145332877Y-92441943D01*
X145311706Y-92417511D01*
X145310775Y-92414066D01*
X145309566Y-92412541D01*
X145307502Y-92401945D01*
X145301109Y-92378275D01*
X145300500Y-92372153D01*
X145300500Y-92300326D01*
X145286205Y-92228465D01*
X145285609Y-92222466D01*
X145286003Y-92220376D01*
X145285000Y-92210191D01*
X145285000Y-89914000D01*
X145304685Y-89846961D01*
X145357489Y-89801206D01*
X145409000Y-89790000D01*
X145861000Y-89790000D01*
X145928039Y-89809685D01*
G37*
G04 #@! TD.AperFunction*
G04 #@! TD*
G04 #@! TA.AperFunction,Conductor*
G04 #@! TO.N,GND*
G36*
X151439429Y-107645185D02*
G01*
X151460071Y-107661819D01*
X151538181Y-107739929D01*
X151571666Y-107801252D01*
X151574500Y-107827610D01*
X151574500Y-108692389D01*
X151554815Y-108759428D01*
X151538181Y-108780070D01*
X151255253Y-109062997D01*
X151193930Y-109096482D01*
X151143381Y-109096933D01*
X151055740Y-109079500D01*
X151055737Y-109079500D01*
X150884263Y-109079500D01*
X150884261Y-109079500D01*
X150716090Y-109112951D01*
X150716080Y-109112954D01*
X150557667Y-109178570D01*
X150415086Y-109273839D01*
X150293839Y-109395086D01*
X150198570Y-109537667D01*
X150132954Y-109696080D01*
X150132951Y-109696090D01*
X150121617Y-109753072D01*
X150089232Y-109814983D01*
X150028516Y-109849557D01*
X149958747Y-109845817D01*
X149902075Y-109804950D01*
X149878383Y-109753072D01*
X149867048Y-109696090D01*
X149867047Y-109696089D01*
X149867047Y-109696085D01*
X149836727Y-109622886D01*
X149801429Y-109537667D01*
X149706160Y-109395086D01*
X149584911Y-109273837D01*
X149437271Y-109175188D01*
X149438579Y-109173230D01*
X149436030Y-109170725D01*
X149423297Y-109164910D01*
X149411606Y-109146718D01*
X149396184Y-109131560D01*
X149392328Y-109116721D01*
X149385523Y-109106132D01*
X149380500Y-109071197D01*
X149380500Y-109038342D01*
X149400185Y-108971303D01*
X149452989Y-108925548D01*
X149463545Y-108921301D01*
X149528618Y-108898530D01*
X149587882Y-108877793D01*
X149697150Y-108797150D01*
X149777793Y-108687882D01*
X149800219Y-108623790D01*
X149822646Y-108559701D01*
X149822646Y-108559699D01*
X149825500Y-108529269D01*
X149825500Y-107870730D01*
X149822646Y-107840303D01*
X149822646Y-107840301D01*
X149805203Y-107790454D01*
X149801643Y-107720676D01*
X149836372Y-107660048D01*
X149898365Y-107627821D01*
X149922246Y-107625500D01*
X151372390Y-107625500D01*
X151439429Y-107645185D01*
G37*
G04 #@! TD.AperFunction*
G04 #@! TA.AperFunction,Conductor*
G36*
X151808915Y-86501527D02*
G01*
X152478860Y-86607636D01*
X152485178Y-86608807D01*
X153176341Y-86755718D01*
X153182623Y-86757226D01*
X153865158Y-86940110D01*
X153871334Y-86941939D01*
X154543344Y-87160290D01*
X154549441Y-87162448D01*
X154851357Y-87278343D01*
X155209089Y-87415663D01*
X155215082Y-87418145D01*
X155860579Y-87705539D01*
X155866405Y-87708317D01*
X156293785Y-87926079D01*
X156495981Y-88029103D01*
X156501686Y-88032201D01*
X157113601Y-88385490D01*
X157119100Y-88388860D01*
X157711706Y-88773703D01*
X157717023Y-88777358D01*
X158288653Y-89192671D01*
X158293804Y-89196623D01*
X158842915Y-89641284D01*
X158847851Y-89645500D01*
X159372930Y-90118283D01*
X159377639Y-90122752D01*
X159877247Y-90622360D01*
X159881716Y-90627069D01*
X160354499Y-91152148D01*
X160358715Y-91157084D01*
X160803376Y-91706195D01*
X160807327Y-91711345D01*
X161198153Y-92249271D01*
X161222630Y-92282960D01*
X161226301Y-92288301D01*
X161567695Y-92814000D01*
X161611128Y-92880881D01*
X161614516Y-92886409D01*
X161652044Y-92951410D01*
X161967798Y-93498313D01*
X161970896Y-93504018D01*
X162291673Y-94133577D01*
X162294468Y-94139437D01*
X162581852Y-94784913D01*
X162584336Y-94790910D01*
X162837546Y-95450546D01*
X162839713Y-95456666D01*
X163058052Y-96128641D01*
X163059896Y-96134866D01*
X163242769Y-96817361D01*
X163244284Y-96823673D01*
X163391186Y-97514789D01*
X163392369Y-97521172D01*
X163502898Y-98219025D01*
X163503746Y-98225462D01*
X163577603Y-98928169D01*
X163578112Y-98934640D01*
X163615091Y-99640228D01*
X163615261Y-99646718D01*
X163615261Y-100353281D01*
X163615091Y-100359771D01*
X163578112Y-101065359D01*
X163577603Y-101071830D01*
X163503746Y-101774537D01*
X163502898Y-101780974D01*
X163392369Y-102478827D01*
X163391186Y-102485210D01*
X163244284Y-103176326D01*
X163242769Y-103182638D01*
X163059896Y-103865133D01*
X163058052Y-103871358D01*
X162839713Y-104543333D01*
X162837546Y-104549453D01*
X162584336Y-105209089D01*
X162581852Y-105215086D01*
X162294468Y-105860562D01*
X162291673Y-105866422D01*
X161970896Y-106495981D01*
X161967798Y-106501686D01*
X161614520Y-107113583D01*
X161611128Y-107119118D01*
X161226307Y-107711689D01*
X161222630Y-107717039D01*
X160807328Y-108288653D01*
X160803376Y-108293804D01*
X160358715Y-108842915D01*
X160354499Y-108847851D01*
X159881716Y-109372930D01*
X159877247Y-109377639D01*
X159377639Y-109877247D01*
X159372930Y-109881716D01*
X158847851Y-110354499D01*
X158842915Y-110358715D01*
X158293804Y-110803376D01*
X158288653Y-110807328D01*
X157717039Y-111222630D01*
X157711689Y-111226307D01*
X157119118Y-111611128D01*
X157113583Y-111614520D01*
X156501686Y-111967798D01*
X156495981Y-111970896D01*
X155866422Y-112291673D01*
X155860562Y-112294468D01*
X155215086Y-112581852D01*
X155209089Y-112584336D01*
X154549453Y-112837546D01*
X154543333Y-112839713D01*
X153871358Y-113058052D01*
X153865133Y-113059896D01*
X153182638Y-113242769D01*
X153176326Y-113244284D01*
X152485210Y-113391186D01*
X152478827Y-113392369D01*
X151780974Y-113502898D01*
X151774537Y-113503746D01*
X151071830Y-113577603D01*
X151065359Y-113578112D01*
X150359772Y-113615091D01*
X150353282Y-113615261D01*
X149646718Y-113615261D01*
X149640228Y-113615091D01*
X148934640Y-113578112D01*
X148928169Y-113577603D01*
X148225462Y-113503746D01*
X148219025Y-113502898D01*
X147521172Y-113392369D01*
X147514789Y-113391186D01*
X146823673Y-113244284D01*
X146817361Y-113242769D01*
X146134866Y-113059896D01*
X146128641Y-113058052D01*
X145456666Y-112839713D01*
X145450546Y-112837546D01*
X144790910Y-112584336D01*
X144784913Y-112581852D01*
X144139437Y-112294468D01*
X144133577Y-112291673D01*
X143504018Y-111970896D01*
X143498313Y-111967798D01*
X142886416Y-111614520D01*
X142880881Y-111611128D01*
X142288310Y-111226307D01*
X142282960Y-111222630D01*
X141711346Y-110807328D01*
X141706195Y-110803376D01*
X141157084Y-110358715D01*
X141152148Y-110354499D01*
X140627069Y-109881716D01*
X140622360Y-109877247D01*
X140174781Y-109429668D01*
X143272500Y-109429668D01*
X143272500Y-109622891D01*
X143302725Y-109813721D01*
X143362429Y-109997474D01*
X143450147Y-110169629D01*
X143563715Y-110325943D01*
X143700336Y-110462564D01*
X143856650Y-110576132D01*
X144028805Y-110663850D01*
X144120681Y-110693702D01*
X144212560Y-110723555D01*
X144300943Y-110737553D01*
X144403389Y-110753780D01*
X144403394Y-110753780D01*
X144596611Y-110753780D01*
X144689123Y-110739126D01*
X144787440Y-110723555D01*
X144971197Y-110663849D01*
X145143350Y-110576132D01*
X145299663Y-110462565D01*
X145436285Y-110325943D01*
X145549852Y-110169630D01*
X145637569Y-109997477D01*
X145697275Y-109813720D01*
X145713447Y-109711612D01*
X145727500Y-109622891D01*
X145727500Y-109429668D01*
X145702818Y-109273837D01*
X145697275Y-109238840D01*
X145651020Y-109096482D01*
X145637570Y-109055085D01*
X145549852Y-108882930D01*
X145487529Y-108797149D01*
X145436285Y-108726617D01*
X145299663Y-108589995D01*
X145143350Y-108476428D01*
X145143351Y-108476428D01*
X145143349Y-108476427D01*
X144971194Y-108388709D01*
X144787441Y-108329005D01*
X144596611Y-108298780D01*
X144596606Y-108298780D01*
X144403394Y-108298780D01*
X144403389Y-108298780D01*
X144212558Y-108329005D01*
X144028805Y-108388709D01*
X143856650Y-108476427D01*
X143700336Y-108589995D01*
X143563715Y-108726616D01*
X143450147Y-108882930D01*
X143362429Y-109055085D01*
X143302725Y-109238838D01*
X143272500Y-109429668D01*
X140174781Y-109429668D01*
X140122752Y-109377639D01*
X140118283Y-109372930D01*
X139645500Y-108847851D01*
X139641284Y-108842915D01*
X139273477Y-108388711D01*
X139196619Y-108293798D01*
X139192671Y-108288653D01*
X139091478Y-108149373D01*
X138777358Y-107717023D01*
X138773703Y-107711706D01*
X138388860Y-107119100D01*
X138385490Y-107113601D01*
X138032201Y-106501686D01*
X138029103Y-106495981D01*
X137906569Y-106255495D01*
X137708317Y-105866405D01*
X137705539Y-105860579D01*
X137418145Y-105215082D01*
X137415663Y-105209089D01*
X137384952Y-105129084D01*
X137325390Y-104973920D01*
X139249499Y-104973920D01*
X139278340Y-105118907D01*
X139278343Y-105118917D01*
X139334912Y-105255488D01*
X139334919Y-105255501D01*
X139417048Y-105378415D01*
X139417051Y-105378419D01*
X139521580Y-105482948D01*
X139521584Y-105482951D01*
X139644498Y-105565080D01*
X139644511Y-105565087D01*
X139781082Y-105621656D01*
X139781087Y-105621658D01*
X139781091Y-105621658D01*
X139781092Y-105621659D01*
X139926079Y-105650500D01*
X139926082Y-105650500D01*
X140073920Y-105650500D01*
X140171462Y-105631096D01*
X140218913Y-105621658D01*
X140355495Y-105565084D01*
X140478416Y-105482951D01*
X140582951Y-105378416D01*
X140665084Y-105255495D01*
X140721658Y-105118913D01*
X140746158Y-104995747D01*
X140750500Y-104973920D01*
X140750500Y-104826079D01*
X140721659Y-104681092D01*
X140721658Y-104681091D01*
X140721658Y-104681087D01*
X140721656Y-104681082D01*
X140665087Y-104544511D01*
X140665080Y-104544498D01*
X140582951Y-104421584D01*
X140582948Y-104421580D01*
X140478419Y-104317051D01*
X140478415Y-104317048D01*
X140384803Y-104254498D01*
X141074500Y-104254498D01*
X141074500Y-104795481D01*
X141074501Y-104795490D01*
X141080587Y-104852114D01*
X141107960Y-104925500D01*
X141128372Y-104980226D01*
X141210313Y-105089687D01*
X141319774Y-105171628D01*
X141447886Y-105219412D01*
X141504515Y-105225500D01*
X142095484Y-105225499D01*
X142152114Y-105219412D01*
X142280226Y-105171628D01*
X142389687Y-105089687D01*
X142471628Y-104980226D01*
X142519412Y-104852114D01*
X142521687Y-104830944D01*
X142525499Y-104795501D01*
X142525499Y-104795490D01*
X142525500Y-104795485D01*
X142525499Y-104254516D01*
X142519412Y-104197886D01*
X142512122Y-104178342D01*
X142490931Y-104121527D01*
X142471628Y-104069774D01*
X142389687Y-103960313D01*
X142342053Y-103924655D01*
X142331369Y-103910382D01*
X142317098Y-103899699D01*
X142310867Y-103882995D01*
X142300183Y-103868722D01*
X142298911Y-103850938D01*
X142292681Y-103834235D01*
X142296470Y-103816813D01*
X142295199Y-103799031D01*
X142303743Y-103783383D01*
X142307533Y-103765962D01*
X142328679Y-103737712D01*
X142479575Y-103586816D01*
X142540897Y-103553334D01*
X142567255Y-103550500D01*
X142900501Y-103550500D01*
X142967540Y-103570185D01*
X143013295Y-103622989D01*
X143024500Y-103674498D01*
X143024501Y-103763138D01*
X143030741Y-103810545D01*
X143048018Y-103847596D01*
X143058509Y-103916673D01*
X143048018Y-103952402D01*
X143030742Y-103989451D01*
X143030740Y-103989458D01*
X143024500Y-104036859D01*
X143024500Y-104263132D01*
X143025437Y-104270246D01*
X143030741Y-104310545D01*
X143030742Y-104310547D01*
X143030742Y-104310548D01*
X143075606Y-104406759D01*
X143079253Y-104414579D01*
X143160421Y-104495747D01*
X143264455Y-104544259D01*
X143311861Y-104550500D01*
X144488138Y-104550499D01*
X144535545Y-104544259D01*
X144639579Y-104495747D01*
X144720747Y-104414579D01*
X144720747Y-104414578D01*
X144728418Y-104406908D01*
X144730377Y-104408867D01*
X144733013Y-104406759D01*
X144744855Y-104390942D01*
X144759740Y-104385389D01*
X144772151Y-104375467D01*
X144791806Y-104373429D01*
X144810319Y-104366525D01*
X144825843Y-104369902D01*
X144841648Y-104368264D01*
X144859285Y-104377177D01*
X144878592Y-104381377D01*
X144901436Y-104398478D01*
X144904008Y-104399778D01*
X144906846Y-104402528D01*
X145013181Y-104508863D01*
X145046666Y-104570186D01*
X145049500Y-104596544D01*
X145049500Y-105646144D01*
X145062720Y-105695482D01*
X145073384Y-105735285D01*
X145073385Y-105735286D01*
X145119527Y-105815208D01*
X145119529Y-105815211D01*
X145119530Y-105815212D01*
X147719531Y-108415212D01*
X147784788Y-108480469D01*
X147784791Y-108480470D01*
X147784794Y-108480473D01*
X147864706Y-108526611D01*
X147864707Y-108526611D01*
X147864712Y-108526614D01*
X147953856Y-108550500D01*
X148436153Y-108550500D01*
X148503192Y-108570185D01*
X148542574Y-108610856D01*
X148549034Y-108621659D01*
X148572207Y-108687882D01*
X148652850Y-108797150D01*
X148654882Y-108798650D01*
X148661921Y-108810419D01*
X148669235Y-108838664D01*
X148679241Y-108866059D01*
X148679500Y-108874063D01*
X148679500Y-109071197D01*
X148659815Y-109138236D01*
X148621604Y-109173505D01*
X148622729Y-109175188D01*
X148475088Y-109273837D01*
X148353839Y-109395086D01*
X148258570Y-109537667D01*
X148192954Y-109696080D01*
X148192951Y-109696090D01*
X148159500Y-109864260D01*
X148159500Y-109864263D01*
X148159500Y-110035737D01*
X148159500Y-110035739D01*
X148159499Y-110035739D01*
X148192951Y-110203909D01*
X148192954Y-110203919D01*
X148258570Y-110362332D01*
X148353839Y-110504913D01*
X148475086Y-110626160D01*
X148617667Y-110721429D01*
X148776080Y-110787045D01*
X148776085Y-110787047D01*
X148776089Y-110787047D01*
X148776090Y-110787048D01*
X148944260Y-110820500D01*
X148944263Y-110820500D01*
X149115739Y-110820500D01*
X149228881Y-110797993D01*
X149283915Y-110787047D01*
X149437199Y-110723555D01*
X149442332Y-110721429D01*
X149442333Y-110721428D01*
X149442336Y-110721427D01*
X149584911Y-110626162D01*
X149706162Y-110504911D01*
X149801427Y-110362336D01*
X149816502Y-110325943D01*
X149867045Y-110203919D01*
X149867047Y-110203915D01*
X149878383Y-110146928D01*
X149910768Y-110085017D01*
X149971484Y-110050443D01*
X150041253Y-110054182D01*
X150097925Y-110095049D01*
X150121617Y-110146928D01*
X150132951Y-110203907D01*
X150132954Y-110203919D01*
X150198570Y-110362332D01*
X150293839Y-110504913D01*
X150415086Y-110626160D01*
X150557667Y-110721429D01*
X150716080Y-110787045D01*
X150716085Y-110787047D01*
X150716089Y-110787047D01*
X150716090Y-110787048D01*
X150884260Y-110820500D01*
X150884263Y-110820500D01*
X151055739Y-110820500D01*
X151168881Y-110797993D01*
X151223915Y-110787047D01*
X151377199Y-110723555D01*
X151382332Y-110721429D01*
X151382333Y-110721428D01*
X151382336Y-110721427D01*
X151524911Y-110626162D01*
X151646162Y-110504911D01*
X151741427Y-110362336D01*
X151756502Y-110325943D01*
X151807045Y-110203919D01*
X151807047Y-110203915D01*
X151840500Y-110035737D01*
X151840500Y-109864263D01*
X151840500Y-109864260D01*
X151823066Y-109776618D01*
X151829293Y-109707027D01*
X151857002Y-109664745D01*
X151984083Y-109537664D01*
X152340485Y-109181263D01*
X152396503Y-109084237D01*
X152425500Y-108976018D01*
X152425500Y-108863982D01*
X152425500Y-107543982D01*
X152419665Y-107522207D01*
X152396503Y-107435763D01*
X152340484Y-107338736D01*
X151861263Y-106859515D01*
X151764237Y-106803497D01*
X151656018Y-106774500D01*
X151656017Y-106774500D01*
X151161890Y-106774500D01*
X151094851Y-106754815D01*
X151049096Y-106702011D01*
X151039152Y-106632853D01*
X151062120Y-106576867D01*
X151127790Y-106487886D01*
X151127789Y-106487886D01*
X151127793Y-106487882D01*
X151166097Y-106378416D01*
X151172646Y-106359701D01*
X151172646Y-106359699D01*
X151175500Y-106329269D01*
X151175500Y-105973920D01*
X152249499Y-105973920D01*
X152278340Y-106118907D01*
X152278343Y-106118917D01*
X152334912Y-106255488D01*
X152334919Y-106255501D01*
X152417048Y-106378415D01*
X152417051Y-106378419D01*
X152521580Y-106482948D01*
X152521584Y-106482951D01*
X152644498Y-106565080D01*
X152644511Y-106565087D01*
X152721919Y-106597150D01*
X152781087Y-106621658D01*
X152781091Y-106621658D01*
X152781092Y-106621659D01*
X152926079Y-106650500D01*
X152926082Y-106650500D01*
X153073920Y-106650500D01*
X153171462Y-106631096D01*
X153218913Y-106621658D01*
X153355495Y-106565084D01*
X153478416Y-106482951D01*
X153582951Y-106378416D01*
X153665084Y-106255495D01*
X153721658Y-106118913D01*
X153750500Y-105973918D01*
X153750500Y-105826082D01*
X153750500Y-105826079D01*
X153721659Y-105681092D01*
X153721658Y-105681091D01*
X153721658Y-105681087D01*
X153714196Y-105663072D01*
X153665087Y-105544511D01*
X153665080Y-105544498D01*
X153582951Y-105421584D01*
X153582948Y-105421580D01*
X153478419Y-105317051D01*
X153478415Y-105317048D01*
X153355501Y-105234919D01*
X153355488Y-105234912D01*
X153218917Y-105178343D01*
X153218907Y-105178340D01*
X153073920Y-105149500D01*
X153073918Y-105149500D01*
X152926082Y-105149500D01*
X152926080Y-105149500D01*
X152781092Y-105178340D01*
X152781082Y-105178343D01*
X152644511Y-105234912D01*
X152644498Y-105234919D01*
X152521584Y-105317048D01*
X152521580Y-105317051D01*
X152417051Y-105421580D01*
X152417048Y-105421584D01*
X152334919Y-105544498D01*
X152334912Y-105544511D01*
X152278343Y-105681082D01*
X152278340Y-105681092D01*
X152249500Y-105826079D01*
X152249500Y-105826082D01*
X152249500Y-105973918D01*
X152249500Y-105973920D01*
X152249499Y-105973920D01*
X151175500Y-105973920D01*
X151175500Y-105670730D01*
X151172646Y-105640300D01*
X151172646Y-105640298D01*
X151127793Y-105512119D01*
X151127792Y-105512117D01*
X151110041Y-105488065D01*
X151047150Y-105402850D01*
X151025865Y-105387141D01*
X150983615Y-105331494D01*
X150975500Y-105287372D01*
X150975500Y-104877141D01*
X150979649Y-104861653D01*
X150978995Y-104847908D01*
X150992112Y-104815142D01*
X150994766Y-104810545D01*
X151044798Y-104723887D01*
X151044799Y-104723886D01*
X151044799Y-104723884D01*
X151051372Y-104712501D01*
X151101939Y-104664285D01*
X151158760Y-104650500D01*
X151859308Y-104650500D01*
X151859309Y-104650500D01*
X151949673Y-104626286D01*
X151973887Y-104619799D01*
X152076614Y-104560489D01*
X154150285Y-102486819D01*
X154211608Y-102453334D01*
X154237966Y-102450500D01*
X156862317Y-102450500D01*
X156929356Y-102470185D01*
X156972802Y-102518205D01*
X157016006Y-102602998D01*
X157122441Y-102749494D01*
X157122445Y-102749499D01*
X157250500Y-102877554D01*
X157280956Y-102899682D01*
X157323621Y-102955013D01*
X157329600Y-103024626D01*
X157296994Y-103086421D01*
X157280956Y-103100318D01*
X157250500Y-103122445D01*
X157122445Y-103250500D01*
X157122441Y-103250505D01*
X157016006Y-103397002D01*
X156933788Y-103558360D01*
X156933787Y-103558363D01*
X156877829Y-103730589D01*
X156849500Y-103909448D01*
X156849500Y-104090551D01*
X156877829Y-104269410D01*
X156933787Y-104441636D01*
X156933788Y-104441639D01*
X156978437Y-104529266D01*
X156999287Y-104570186D01*
X157016006Y-104602997D01*
X157122441Y-104749494D01*
X157122445Y-104749499D01*
X157250500Y-104877554D01*
X157250505Y-104877558D01*
X157349512Y-104949490D01*
X157397006Y-104983996D01*
X157502484Y-105037740D01*
X157558360Y-105066211D01*
X157558363Y-105066212D01*
X157602354Y-105080505D01*
X157730591Y-105122171D01*
X157813429Y-105135291D01*
X157909449Y-105150500D01*
X157909454Y-105150500D01*
X158090551Y-105150500D01*
X158177259Y-105136765D01*
X158269409Y-105122171D01*
X158441639Y-105066211D01*
X158602994Y-104983996D01*
X158749501Y-104877553D01*
X158877553Y-104749501D01*
X158983996Y-104602994D01*
X159066211Y-104441639D01*
X159122171Y-104269409D01*
X159141163Y-104149500D01*
X159150500Y-104090551D01*
X159150500Y-103909448D01*
X159127326Y-103763138D01*
X159122171Y-103730591D01*
X159093703Y-103642975D01*
X159066212Y-103558363D01*
X159066211Y-103558360D01*
X159030197Y-103487680D01*
X158983996Y-103397006D01*
X158954687Y-103356665D01*
X158877558Y-103250505D01*
X158877554Y-103250500D01*
X158749501Y-103122447D01*
X158719044Y-103100319D01*
X158676378Y-103044989D01*
X158670399Y-102975376D01*
X158703004Y-102913580D01*
X158719044Y-102899681D01*
X158749501Y-102877553D01*
X158877553Y-102749501D01*
X158983996Y-102602994D01*
X159066211Y-102441639D01*
X159122171Y-102269409D01*
X159137537Y-102172390D01*
X159150500Y-102090551D01*
X159150500Y-101909448D01*
X159129131Y-101774537D01*
X159122171Y-101730591D01*
X159066211Y-101558361D01*
X159066211Y-101558360D01*
X159027198Y-101481795D01*
X158983996Y-101397006D01*
X158942354Y-101339690D01*
X158877558Y-101250505D01*
X158877554Y-101250500D01*
X158749501Y-101122447D01*
X158719044Y-101100319D01*
X158676378Y-101044989D01*
X158670399Y-100975376D01*
X158703004Y-100913580D01*
X158719044Y-100899681D01*
X158720444Y-100898664D01*
X158749501Y-100877553D01*
X158877553Y-100749501D01*
X158983996Y-100602994D01*
X159066211Y-100441639D01*
X159122171Y-100269409D01*
X159143795Y-100132882D01*
X159150500Y-100090551D01*
X159150500Y-99909448D01*
X159131387Y-99788780D01*
X159122171Y-99730591D01*
X159066211Y-99558361D01*
X159066211Y-99558360D01*
X159037740Y-99502484D01*
X158983996Y-99397006D01*
X158947579Y-99346882D01*
X158877558Y-99250505D01*
X158877554Y-99250500D01*
X158749499Y-99122445D01*
X158749494Y-99122441D01*
X158602997Y-99016006D01*
X158602996Y-99016005D01*
X158602994Y-99016004D01*
X158506670Y-98966924D01*
X158441639Y-98933788D01*
X158441636Y-98933787D01*
X158269410Y-98877829D01*
X158090551Y-98849500D01*
X158090546Y-98849500D01*
X157909454Y-98849500D01*
X157909449Y-98849500D01*
X157730589Y-98877829D01*
X157558363Y-98933787D01*
X157558360Y-98933788D01*
X157397002Y-99016006D01*
X157250505Y-99122441D01*
X157250500Y-99122445D01*
X157122445Y-99250500D01*
X157122441Y-99250505D01*
X157016006Y-99397002D01*
X156933788Y-99558360D01*
X156933787Y-99558363D01*
X156877829Y-99730589D01*
X156849500Y-99909448D01*
X156849500Y-100090551D01*
X156877829Y-100269410D01*
X156933787Y-100441636D01*
X156933788Y-100441639D01*
X156963900Y-100500735D01*
X157010491Y-100592175D01*
X157016006Y-100602997D01*
X157122441Y-100749494D01*
X157122445Y-100749499D01*
X157250500Y-100877554D01*
X157280956Y-100899682D01*
X157323621Y-100955013D01*
X157329600Y-101024626D01*
X157296994Y-101086421D01*
X157280956Y-101100318D01*
X157250500Y-101122445D01*
X157122445Y-101250500D01*
X157122441Y-101250505D01*
X157016006Y-101397001D01*
X156972802Y-101481795D01*
X156924827Y-101532591D01*
X156862317Y-101549500D01*
X153940691Y-101549500D01*
X153850325Y-101573713D01*
X153850324Y-101573712D01*
X153826115Y-101580200D01*
X153826106Y-101580204D01*
X153723392Y-101639505D01*
X153723384Y-101639511D01*
X151649716Y-103713181D01*
X151588393Y-103746666D01*
X151562035Y-103749500D01*
X151117980Y-103749500D01*
X151050941Y-103729815D01*
X151018210Y-103699133D01*
X150947151Y-103602851D01*
X150837882Y-103522207D01*
X150837880Y-103522206D01*
X150709700Y-103477353D01*
X150679270Y-103474500D01*
X150679266Y-103474500D01*
X150170734Y-103474500D01*
X150170730Y-103474500D01*
X150140300Y-103477353D01*
X150140298Y-103477353D01*
X150012119Y-103522206D01*
X150012117Y-103522207D01*
X149902850Y-103602850D01*
X149822207Y-103712117D01*
X149822206Y-103712119D01*
X149777353Y-103840298D01*
X149777353Y-103840300D01*
X149774500Y-103870730D01*
X149774500Y-104529269D01*
X149777353Y-104559699D01*
X149777353Y-104559701D01*
X149819829Y-104681087D01*
X149822207Y-104687882D01*
X149902850Y-104797150D01*
X150011800Y-104877558D01*
X150019595Y-104883311D01*
X150018137Y-104885285D01*
X150058515Y-104924580D01*
X150074500Y-104985480D01*
X150074500Y-105287372D01*
X150054815Y-105354411D01*
X150024134Y-105387142D01*
X150002850Y-105402850D01*
X149922207Y-105512117D01*
X149922206Y-105512119D01*
X149877353Y-105640298D01*
X149877353Y-105640300D01*
X149874500Y-105670730D01*
X149874500Y-106329269D01*
X149877353Y-106359699D01*
X149877353Y-106359701D01*
X149922206Y-106487880D01*
X149922209Y-106487886D01*
X149987880Y-106576867D01*
X150011851Y-106642496D01*
X149996535Y-106710666D01*
X149946795Y-106759734D01*
X149888110Y-106774500D01*
X149511890Y-106774500D01*
X149444851Y-106754815D01*
X149399096Y-106702011D01*
X149389152Y-106632853D01*
X149412120Y-106576867D01*
X149477790Y-106487886D01*
X149477789Y-106487886D01*
X149477793Y-106487882D01*
X149516097Y-106378416D01*
X149522646Y-106359701D01*
X149522646Y-106359699D01*
X149525500Y-106329269D01*
X149525500Y-105670730D01*
X149522646Y-105640300D01*
X149522646Y-105640298D01*
X149477793Y-105512119D01*
X149477792Y-105512117D01*
X149460041Y-105488065D01*
X149397150Y-105402850D01*
X149307335Y-105336564D01*
X149265086Y-105280918D01*
X149261200Y-105268905D01*
X149248207Y-105220412D01*
X149195480Y-105129087D01*
X149146898Y-105080505D01*
X149113413Y-105019182D01*
X149118397Y-104949490D01*
X149160269Y-104893557D01*
X149180117Y-104882982D01*
X149179669Y-104882133D01*
X149187876Y-104877794D01*
X149187882Y-104877793D01*
X149297150Y-104797150D01*
X149377793Y-104687882D01*
X149401617Y-104619798D01*
X149422646Y-104559701D01*
X149422646Y-104559699D01*
X149425500Y-104529269D01*
X149425500Y-103870730D01*
X149422646Y-103840300D01*
X149422646Y-103840298D01*
X149377793Y-103712119D01*
X149377792Y-103712117D01*
X149375115Y-103708490D01*
X149297150Y-103602850D01*
X149187882Y-103522207D01*
X149187880Y-103522206D01*
X149059700Y-103477353D01*
X149029270Y-103474500D01*
X149029266Y-103474500D01*
X148520734Y-103474500D01*
X148520730Y-103474500D01*
X148490300Y-103477353D01*
X148490298Y-103477353D01*
X148362119Y-103522206D01*
X148362117Y-103522207D01*
X148252845Y-103602853D01*
X148248723Y-103606976D01*
X148240779Y-103611312D01*
X148235356Y-103618558D01*
X148210592Y-103627794D01*
X148187398Y-103640458D01*
X148178371Y-103639812D01*
X148169892Y-103642975D01*
X148144068Y-103637357D01*
X148117707Y-103635471D01*
X148108655Y-103629653D01*
X148101619Y-103628123D01*
X148073365Y-103606972D01*
X147954073Y-103487680D01*
X147920588Y-103426357D01*
X147925572Y-103356665D01*
X147954068Y-103312322D01*
X147972662Y-103293728D01*
X148028248Y-103261636D01*
X148084926Y-103246450D01*
X148194174Y-103183375D01*
X148283375Y-103094174D01*
X148346450Y-102984926D01*
X148379100Y-102863075D01*
X148379100Y-102736925D01*
X148346450Y-102615074D01*
X148283375Y-102505826D01*
X148194174Y-102416625D01*
X148084926Y-102353550D01*
X148076541Y-102351303D01*
X148062654Y-102343285D01*
X148049212Y-102340361D01*
X148020958Y-102319210D01*
X147961819Y-102260071D01*
X147928334Y-102198748D01*
X147925500Y-102172390D01*
X147925500Y-100913216D01*
X147945185Y-100846177D01*
X147997989Y-100800422D01*
X148067147Y-100790478D01*
X148130703Y-100819503D01*
X148164061Y-100865764D01*
X148177683Y-100898652D01*
X148177690Y-100898667D01*
X148310577Y-101128834D01*
X148472372Y-101339690D01*
X148472378Y-101339697D01*
X148660302Y-101527621D01*
X148660309Y-101527627D01*
X148871165Y-101689422D01*
X149101332Y-101822309D01*
X149101347Y-101822316D01*
X149207163Y-101866146D01*
X149346883Y-101924020D01*
X149603606Y-101992809D01*
X149867111Y-102027500D01*
X149867118Y-102027500D01*
X150132882Y-102027500D01*
X150132889Y-102027500D01*
X150396394Y-101992809D01*
X150653117Y-101924020D01*
X150898664Y-101822311D01*
X151128835Y-101689422D01*
X151339692Y-101527626D01*
X151527626Y-101339692D01*
X151689422Y-101128835D01*
X151822311Y-100898664D01*
X151924020Y-100653117D01*
X151992809Y-100396394D01*
X152027500Y-100132889D01*
X152027500Y-99867111D01*
X151992809Y-99603606D01*
X151924020Y-99346883D01*
X151843909Y-99153478D01*
X151822316Y-99101347D01*
X151822309Y-99101332D01*
X151689422Y-98871165D01*
X151527627Y-98660309D01*
X151527621Y-98660302D01*
X151339697Y-98472378D01*
X151339690Y-98472372D01*
X151128834Y-98310577D01*
X150898667Y-98177690D01*
X150898652Y-98177683D01*
X150653117Y-98075980D01*
X150396390Y-98007190D01*
X150132899Y-97972501D01*
X150132894Y-97972500D01*
X150132889Y-97972500D01*
X149867111Y-97972500D01*
X149867105Y-97972500D01*
X149867100Y-97972501D01*
X149603609Y-98007190D01*
X149346882Y-98075980D01*
X149101347Y-98177683D01*
X149101337Y-98177688D01*
X148885986Y-98302020D01*
X148818086Y-98318492D01*
X148752059Y-98295639D01*
X148708869Y-98240717D01*
X148702228Y-98171164D01*
X148716599Y-98132635D01*
X148763889Y-98050727D01*
X148790501Y-97951410D01*
X148790501Y-97848589D01*
X148790501Y-97840994D01*
X148790500Y-97840976D01*
X148790500Y-96913111D01*
X148810185Y-96846072D01*
X148826815Y-96825434D01*
X149029563Y-96622685D01*
X149029568Y-96622682D01*
X149039771Y-96612478D01*
X149039773Y-96612478D01*
X149112478Y-96539773D01*
X149163888Y-96450728D01*
X149179515Y-96392403D01*
X149215880Y-96332745D01*
X149278727Y-96302216D01*
X149299290Y-96300499D01*
X149322871Y-96300499D01*
X149322872Y-96300499D01*
X149382483Y-96294091D01*
X149517331Y-96243796D01*
X149632546Y-96157546D01*
X149700734Y-96066457D01*
X149756667Y-96024588D01*
X149826359Y-96019604D01*
X149887682Y-96053089D01*
X149899261Y-96066452D01*
X149967454Y-96157546D01*
X150013643Y-96192123D01*
X150082664Y-96243793D01*
X150082671Y-96243797D01*
X150217517Y-96294091D01*
X150217516Y-96294091D01*
X150224444Y-96294835D01*
X150277127Y-96300500D01*
X151322872Y-96300499D01*
X151382483Y-96294091D01*
X151496721Y-96251482D01*
X151566410Y-96246499D01*
X151627733Y-96279984D01*
X151837520Y-96489771D01*
X151837522Y-96489773D01*
X151910227Y-96562478D01*
X151910228Y-96562479D01*
X151910230Y-96562480D01*
X152004030Y-96616635D01*
X152052245Y-96667201D01*
X152058211Y-96680687D01*
X152081204Y-96742332D01*
X152081205Y-96742334D01*
X152167452Y-96857544D01*
X152167455Y-96857547D01*
X152282664Y-96943793D01*
X152282671Y-96943797D01*
X152417517Y-96994091D01*
X152417516Y-96994091D01*
X152424444Y-96994835D01*
X152477127Y-97000500D01*
X153522872Y-97000499D01*
X153582483Y-96994091D01*
X153717331Y-96943796D01*
X153832546Y-96857546D01*
X153918796Y-96742331D01*
X153969091Y-96607483D01*
X153975500Y-96547873D01*
X153975499Y-95952128D01*
X153974249Y-95940500D01*
X153971813Y-95917834D01*
X153970911Y-95909448D01*
X156849500Y-95909448D01*
X156849500Y-96090551D01*
X156877829Y-96269410D01*
X156933787Y-96441636D01*
X156933788Y-96441639D01*
X157016006Y-96602997D01*
X157122441Y-96749494D01*
X157122445Y-96749499D01*
X157250500Y-96877554D01*
X157250505Y-96877558D01*
X157378287Y-96970396D01*
X157397006Y-96983996D01*
X157494551Y-97033698D01*
X157558360Y-97066211D01*
X157558363Y-97066212D01*
X157644476Y-97094191D01*
X157730591Y-97122171D01*
X157813429Y-97135291D01*
X157909449Y-97150500D01*
X157909454Y-97150500D01*
X158090551Y-97150500D01*
X158177259Y-97136765D01*
X158269409Y-97122171D01*
X158441639Y-97066211D01*
X158602994Y-96983996D01*
X158749501Y-96877553D01*
X158877553Y-96749501D01*
X158983996Y-96602994D01*
X159066211Y-96441639D01*
X159122171Y-96269409D01*
X159142029Y-96144029D01*
X159150500Y-96090551D01*
X159150500Y-95909448D01*
X159130390Y-95782483D01*
X159122171Y-95730591D01*
X159066211Y-95558361D01*
X159066211Y-95558360D01*
X159014394Y-95456666D01*
X158983996Y-95397006D01*
X158970396Y-95378287D01*
X158877558Y-95250505D01*
X158877554Y-95250500D01*
X158749499Y-95122445D01*
X158749494Y-95122441D01*
X158602997Y-95016006D01*
X158602996Y-95016005D01*
X158602994Y-95016004D01*
X158551300Y-94989664D01*
X158441639Y-94933788D01*
X158441636Y-94933787D01*
X158269410Y-94877829D01*
X158090551Y-94849500D01*
X158090546Y-94849500D01*
X157909454Y-94849500D01*
X157909449Y-94849500D01*
X157730589Y-94877829D01*
X157558363Y-94933787D01*
X157558360Y-94933788D01*
X157397002Y-95016006D01*
X157250505Y-95122441D01*
X157250500Y-95122445D01*
X157122445Y-95250500D01*
X157122441Y-95250505D01*
X157016006Y-95397002D01*
X156933788Y-95558360D01*
X156933787Y-95558363D01*
X156877829Y-95730589D01*
X156849500Y-95909448D01*
X153970911Y-95909448D01*
X153969091Y-95892516D01*
X153918797Y-95757671D01*
X153918793Y-95757664D01*
X153832547Y-95642455D01*
X153832544Y-95642452D01*
X153717335Y-95556206D01*
X153717328Y-95556202D01*
X153582482Y-95505908D01*
X153582483Y-95505908D01*
X153522883Y-95499501D01*
X153522881Y-95499500D01*
X153522873Y-95499500D01*
X153522864Y-95499500D01*
X152477129Y-95499500D01*
X152477120Y-95499501D01*
X152427752Y-95504808D01*
X152358993Y-95492401D01*
X152307857Y-95444789D01*
X152290500Y-95381518D01*
X152290500Y-92148592D01*
X152290500Y-92148590D01*
X152263888Y-92049272D01*
X152212478Y-91960227D01*
X152139773Y-91887522D01*
X152139772Y-91887521D01*
X152135442Y-91883191D01*
X152135431Y-91883181D01*
X151739774Y-91487523D01*
X151739773Y-91487522D01*
X151710695Y-91470734D01*
X151650728Y-91436112D01*
X151551410Y-91409500D01*
X151528815Y-91409500D01*
X151508957Y-91402563D01*
X151496964Y-91393970D01*
X151482812Y-91389815D01*
X151469137Y-91374033D01*
X151452160Y-91361870D01*
X151446716Y-91348158D01*
X151437057Y-91337011D01*
X151432809Y-91326452D01*
X151427795Y-91312121D01*
X151427793Y-91312118D01*
X151375473Y-91241227D01*
X151347150Y-91202850D01*
X151237882Y-91122207D01*
X151237880Y-91122206D01*
X151109700Y-91077353D01*
X151079270Y-91074500D01*
X151079266Y-91074500D01*
X150570734Y-91074500D01*
X150570730Y-91074500D01*
X150540300Y-91077353D01*
X150540298Y-91077353D01*
X150412119Y-91122206D01*
X150412117Y-91122207D01*
X150302850Y-91202850D01*
X150222207Y-91312117D01*
X150222206Y-91312119D01*
X150177353Y-91440298D01*
X150177353Y-91440300D01*
X150174500Y-91470730D01*
X150174500Y-92129269D01*
X150177353Y-92159699D01*
X150177353Y-92159701D01*
X150221404Y-92285588D01*
X150222207Y-92287882D01*
X150302850Y-92397150D01*
X150412118Y-92477793D01*
X150448664Y-92490581D01*
X150540299Y-92522646D01*
X150570730Y-92525500D01*
X150570734Y-92525500D01*
X151079270Y-92525500D01*
X151109699Y-92522646D01*
X151109701Y-92522646D01*
X151175847Y-92499500D01*
X151237882Y-92477793D01*
X151311867Y-92423189D01*
X151377495Y-92399219D01*
X151445666Y-92414534D01*
X151494734Y-92464275D01*
X151509500Y-92522960D01*
X151509500Y-94681519D01*
X151489815Y-94748558D01*
X151437011Y-94794313D01*
X151372247Y-94804808D01*
X151322873Y-94799500D01*
X151322864Y-94799500D01*
X150277129Y-94799500D01*
X150277123Y-94799501D01*
X150217516Y-94805908D01*
X150082671Y-94856202D01*
X150082664Y-94856206D01*
X149967455Y-94942452D01*
X149967452Y-94942455D01*
X149899266Y-95033540D01*
X149843332Y-95075411D01*
X149773641Y-95080395D01*
X149712318Y-95046909D01*
X149700734Y-95033540D01*
X149632547Y-94942455D01*
X149632544Y-94942452D01*
X149517335Y-94856206D01*
X149517328Y-94856202D01*
X149382482Y-94805908D01*
X149382483Y-94805908D01*
X149322883Y-94799501D01*
X149322881Y-94799500D01*
X149322873Y-94799500D01*
X149322864Y-94799500D01*
X148277129Y-94799500D01*
X148277123Y-94799501D01*
X148217516Y-94805908D01*
X148082671Y-94856202D01*
X148082668Y-94856204D01*
X148048811Y-94881550D01*
X147983346Y-94905967D01*
X147915074Y-94891115D01*
X147865668Y-94841710D01*
X147850500Y-94782283D01*
X147850500Y-93954075D01*
X147850500Y-93954073D01*
X147826614Y-93864929D01*
X147780470Y-93785005D01*
X146614995Y-92619530D01*
X146614994Y-92619529D01*
X146614991Y-92619527D01*
X146535074Y-92573387D01*
X146535072Y-92573386D01*
X146532854Y-92572792D01*
X146532854Y-92572791D01*
X146450506Y-92550727D01*
X146445927Y-92549500D01*
X146445926Y-92549500D01*
X146442407Y-92548557D01*
X146382746Y-92512192D01*
X146352217Y-92449346D01*
X146350500Y-92428782D01*
X146350500Y-92235323D01*
X146350499Y-92235321D01*
X146335967Y-92162264D01*
X146335966Y-92162263D01*
X146335966Y-92162260D01*
X146280601Y-92079399D01*
X146280599Y-92079396D01*
X146276819Y-92075616D01*
X146243334Y-92014293D01*
X146240500Y-91987935D01*
X146240500Y-90135739D01*
X148159499Y-90135739D01*
X148192951Y-90303909D01*
X148192954Y-90303919D01*
X148258570Y-90462332D01*
X148353839Y-90604913D01*
X148475086Y-90726160D01*
X148622729Y-90824811D01*
X148621411Y-90826782D01*
X148623931Y-90829255D01*
X148636703Y-90835088D01*
X148648371Y-90853244D01*
X148663774Y-90868363D01*
X148667642Y-90883231D01*
X148674477Y-90893866D01*
X148679500Y-90928801D01*
X148679500Y-91125937D01*
X148659815Y-91192976D01*
X148655270Y-91199570D01*
X148572209Y-91312113D01*
X148572206Y-91312119D01*
X148527353Y-91440298D01*
X148527353Y-91440300D01*
X148524500Y-91470730D01*
X148524500Y-92129269D01*
X148527353Y-92159699D01*
X148527353Y-92159701D01*
X148571404Y-92285588D01*
X148572207Y-92287882D01*
X148652850Y-92397150D01*
X148762118Y-92477793D01*
X148798664Y-92490581D01*
X148890299Y-92522646D01*
X148920730Y-92525500D01*
X148920734Y-92525500D01*
X149429270Y-92525500D01*
X149459699Y-92522646D01*
X149459701Y-92522646D01*
X149525847Y-92499500D01*
X149587882Y-92477793D01*
X149697150Y-92397150D01*
X149777793Y-92287882D01*
X149811539Y-92191442D01*
X149822646Y-92159701D01*
X149822646Y-92159699D01*
X149825500Y-92129269D01*
X149825500Y-91470730D01*
X149822646Y-91440300D01*
X149822646Y-91440298D01*
X149786503Y-91337011D01*
X149777793Y-91312118D01*
X149697150Y-91202850D01*
X149587882Y-91122207D01*
X149587879Y-91122206D01*
X149463544Y-91078698D01*
X149444554Y-91065077D01*
X149423297Y-91055370D01*
X149416693Y-91045095D01*
X149406768Y-91037976D01*
X149398156Y-91016249D01*
X149385523Y-90996592D01*
X149382767Y-90977426D01*
X149381022Y-90973023D01*
X149380500Y-90961657D01*
X149380500Y-90928801D01*
X149400185Y-90861762D01*
X149438404Y-90826507D01*
X149437271Y-90824811D01*
X149532529Y-90761162D01*
X149584911Y-90726162D01*
X149706162Y-90604911D01*
X149801427Y-90462336D01*
X149836729Y-90377109D01*
X154272500Y-90377109D01*
X154272500Y-90570332D01*
X154302725Y-90761162D01*
X154362429Y-90944915D01*
X154450147Y-91117070D01*
X154540352Y-91241227D01*
X154563715Y-91273384D01*
X154700337Y-91410006D01*
X154807028Y-91487521D01*
X154856650Y-91523573D01*
X155028805Y-91611291D01*
X155120681Y-91641143D01*
X155212560Y-91670996D01*
X155300943Y-91684994D01*
X155403389Y-91701221D01*
X155403394Y-91701221D01*
X155596611Y-91701221D01*
X155689123Y-91686567D01*
X155787440Y-91670996D01*
X155971197Y-91611290D01*
X156143350Y-91523573D01*
X156299663Y-91410006D01*
X156436285Y-91273384D01*
X156549852Y-91117071D01*
X156637569Y-90944918D01*
X156697275Y-90761161D01*
X156719259Y-90622360D01*
X156727500Y-90570332D01*
X156727500Y-90377109D01*
X156709916Y-90266094D01*
X156697275Y-90186281D01*
X156637569Y-90002524D01*
X156549852Y-89830371D01*
X156436285Y-89674058D01*
X156299663Y-89537436D01*
X156143350Y-89423869D01*
X156143351Y-89423869D01*
X156143349Y-89423868D01*
X155971194Y-89336150D01*
X155787441Y-89276446D01*
X155596611Y-89246221D01*
X155596606Y-89246221D01*
X155403394Y-89246221D01*
X155403389Y-89246221D01*
X155212558Y-89276446D01*
X155028805Y-89336150D01*
X154856650Y-89423868D01*
X154700336Y-89537436D01*
X154563715Y-89674057D01*
X154450147Y-89830371D01*
X154362429Y-90002526D01*
X154302725Y-90186279D01*
X154272500Y-90377109D01*
X149836729Y-90377109D01*
X149867047Y-90303915D01*
X149890446Y-90186281D01*
X149900500Y-90135739D01*
X149900500Y-89964260D01*
X149867048Y-89796090D01*
X149867047Y-89796089D01*
X149867047Y-89796085D01*
X149816502Y-89674058D01*
X149801429Y-89637667D01*
X149706160Y-89495086D01*
X149584913Y-89373839D01*
X149442332Y-89278570D01*
X149283919Y-89212954D01*
X149283909Y-89212951D01*
X149115739Y-89179500D01*
X149115737Y-89179500D01*
X148944263Y-89179500D01*
X148944261Y-89179500D01*
X148776090Y-89212951D01*
X148776080Y-89212954D01*
X148617667Y-89278570D01*
X148475086Y-89373839D01*
X148353839Y-89495086D01*
X148258570Y-89637667D01*
X148192954Y-89796080D01*
X148192951Y-89796090D01*
X148159500Y-89964260D01*
X148159500Y-89964263D01*
X148159500Y-90135737D01*
X148159500Y-90135739D01*
X148159499Y-90135739D01*
X146240500Y-90135739D01*
X146240500Y-89961360D01*
X146240500Y-89914000D01*
X146235840Y-89870658D01*
X146235663Y-89867203D01*
X146235808Y-89866594D01*
X146235500Y-89860841D01*
X146235500Y-89065323D01*
X146235499Y-89065321D01*
X146220967Y-88992264D01*
X146220966Y-88992260D01*
X146165601Y-88909399D01*
X146082740Y-88854034D01*
X146082739Y-88854033D01*
X146082735Y-88854032D01*
X146009677Y-88839500D01*
X146009674Y-88839500D01*
X145060326Y-88839500D01*
X145060323Y-88839500D01*
X144987264Y-88854032D01*
X144987260Y-88854033D01*
X144904399Y-88909399D01*
X144849033Y-88992260D01*
X144849032Y-88992264D01*
X144834500Y-89065321D01*
X144834500Y-90314678D01*
X144849032Y-90387735D01*
X144849033Y-90387739D01*
X144849034Y-90387740D01*
X144904399Y-90470601D01*
X144974391Y-90517367D01*
X145019195Y-90570978D01*
X145029500Y-90620469D01*
X145029500Y-92210198D01*
X145029644Y-92213138D01*
X145025568Y-92251297D01*
X144999500Y-92348588D01*
X144999500Y-92348590D01*
X144999500Y-92451410D01*
X145025531Y-92548557D01*
X145026112Y-92550727D01*
X145026114Y-92550732D01*
X145047631Y-92588002D01*
X145064102Y-92655902D01*
X145047631Y-92711998D01*
X145026114Y-92749267D01*
X145026112Y-92749272D01*
X144999500Y-92848590D01*
X144999500Y-92951409D01*
X145026112Y-93050727D01*
X145026114Y-93050732D01*
X145047631Y-93088002D01*
X145064102Y-93155902D01*
X145047631Y-93211998D01*
X145026114Y-93249267D01*
X145026112Y-93249272D01*
X144999500Y-93348590D01*
X144999500Y-93451409D01*
X145026112Y-93550727D01*
X145026113Y-93550730D01*
X145077519Y-93639769D01*
X145077521Y-93639772D01*
X145077522Y-93639773D01*
X145150227Y-93712478D01*
X145239272Y-93763888D01*
X145300244Y-93780225D01*
X145359905Y-93816590D01*
X145390434Y-93879437D01*
X145382139Y-93948813D01*
X145337654Y-94002690D01*
X145300245Y-94019774D01*
X145254816Y-94031947D01*
X145239272Y-94036112D01*
X145239269Y-94036113D01*
X145150230Y-94087519D01*
X145150225Y-94087523D01*
X145077523Y-94160225D01*
X145077519Y-94160230D01*
X145026113Y-94249269D01*
X145026112Y-94249272D01*
X144999500Y-94348590D01*
X144999500Y-94451409D01*
X145026112Y-94550727D01*
X145026113Y-94550730D01*
X145077519Y-94639769D01*
X145077521Y-94639772D01*
X145077522Y-94639773D01*
X145150227Y-94712478D01*
X145150228Y-94712479D01*
X145150230Y-94712480D01*
X145164296Y-94720601D01*
X145239272Y-94763888D01*
X145338590Y-94790500D01*
X145470500Y-94790500D01*
X145537539Y-94810185D01*
X145583294Y-94862989D01*
X145594500Y-94914500D01*
X145594500Y-96337998D01*
X145586682Y-96381331D01*
X145565587Y-96437887D01*
X145559500Y-96494498D01*
X145559500Y-97085481D01*
X145559501Y-97085490D01*
X145565587Y-97142114D01*
X145616471Y-97278534D01*
X145614017Y-97279449D01*
X145625955Y-97334364D01*
X145601528Y-97399825D01*
X145545589Y-97441688D01*
X145502272Y-97449500D01*
X144653856Y-97449500D01*
X144564712Y-97473386D01*
X144564709Y-97473387D01*
X144484791Y-97519527D01*
X144484786Y-97519531D01*
X144129532Y-97874785D01*
X144129528Y-97874791D01*
X144087883Y-97946920D01*
X144087884Y-97946921D01*
X144083385Y-97954714D01*
X144059500Y-98043856D01*
X144059500Y-98839404D01*
X144039815Y-98906443D01*
X144004229Y-98938115D01*
X144006257Y-98940956D01*
X143997895Y-98946926D01*
X143906923Y-99037897D01*
X143906921Y-99037900D01*
X143850419Y-99153478D01*
X143850418Y-99153480D01*
X143850418Y-99153482D01*
X143839500Y-99228418D01*
X143839500Y-99571582D01*
X143850418Y-99646518D01*
X143850418Y-99646519D01*
X143850419Y-99646521D01*
X143906921Y-99762099D01*
X143906923Y-99762102D01*
X143997897Y-99853076D01*
X143997900Y-99853078D01*
X144099994Y-99902988D01*
X144113482Y-99909582D01*
X144188418Y-99920500D01*
X144188423Y-99920500D01*
X144631577Y-99920500D01*
X144631582Y-99920500D01*
X144706518Y-99909582D01*
X144706525Y-99909578D01*
X144710285Y-99908417D01*
X144714965Y-99908350D01*
X144716048Y-99908193D01*
X144716068Y-99908335D01*
X144780147Y-99907427D01*
X144839455Y-99944364D01*
X144869377Y-100007502D01*
X144865389Y-100058166D01*
X144865509Y-100058185D01*
X144865268Y-100059705D01*
X144864836Y-100065197D01*
X144863982Y-100067825D01*
X144849500Y-100159264D01*
X144849500Y-100500739D01*
X144863981Y-100592170D01*
X144863981Y-100592171D01*
X144920142Y-100702392D01*
X144920145Y-100702396D01*
X145007603Y-100789854D01*
X145007605Y-100789855D01*
X145007609Y-100789859D01*
X145117825Y-100846017D01*
X145117826Y-100846017D01*
X145117828Y-100846018D01*
X145152947Y-100851579D01*
X145209265Y-100860500D01*
X145610734Y-100860499D01*
X145610739Y-100860499D01*
X145610739Y-100860498D01*
X145656454Y-100853258D01*
X145702170Y-100846018D01*
X145702171Y-100846018D01*
X145702172Y-100846017D01*
X145702175Y-100846017D01*
X145812391Y-100789859D01*
X145899859Y-100702391D01*
X145956017Y-100592175D01*
X145956017Y-100592173D01*
X145956018Y-100592172D01*
X145956018Y-100592171D01*
X145959901Y-100567650D01*
X145970500Y-100500735D01*
X145970499Y-100159266D01*
X145970499Y-100159264D01*
X145970499Y-100159260D01*
X145956018Y-100067829D01*
X145956018Y-100067828D01*
X145956017Y-100067826D01*
X145956017Y-100067825D01*
X145899859Y-99957609D01*
X145899857Y-99957607D01*
X145894120Y-99949710D01*
X145897282Y-99947412D01*
X145872946Y-99902988D01*
X145877835Y-99833290D01*
X145906398Y-99788780D01*
X145913076Y-99782102D01*
X145913077Y-99782100D01*
X145913078Y-99782099D01*
X145941329Y-99724310D01*
X145969582Y-99666518D01*
X145980500Y-99591582D01*
X145980500Y-99248418D01*
X145969582Y-99173482D01*
X145959803Y-99153478D01*
X145913078Y-99057900D01*
X145913076Y-99057897D01*
X145892360Y-99037181D01*
X145858875Y-98975858D01*
X145863859Y-98906166D01*
X145905731Y-98850233D01*
X145971195Y-98825816D01*
X145980041Y-98825500D01*
X146950500Y-98825500D01*
X147017539Y-98845185D01*
X147063294Y-98897989D01*
X147074500Y-98949500D01*
X147074500Y-102456017D01*
X147103497Y-102564236D01*
X147106608Y-102571747D01*
X147105213Y-102572324D01*
X147119543Y-102631407D01*
X147096687Y-102697433D01*
X147041764Y-102740620D01*
X146995684Y-102749500D01*
X142297273Y-102749500D01*
X142195410Y-102776793D01*
X142104087Y-102829520D01*
X142104084Y-102829522D01*
X141504522Y-103429084D01*
X141504520Y-103429087D01*
X141451790Y-103520417D01*
X141450695Y-103523060D01*
X141447956Y-103531273D01*
X141444676Y-103539436D01*
X141426793Y-103570412D01*
X141417832Y-103603856D01*
X141415902Y-103611056D01*
X141415900Y-103611063D01*
X141399500Y-103672273D01*
X141399500Y-103762541D01*
X141379815Y-103829580D01*
X141327011Y-103875335D01*
X141320071Y-103878209D01*
X141319773Y-103878372D01*
X141210313Y-103960313D01*
X141128373Y-104069771D01*
X141080587Y-104197889D01*
X141074500Y-104254498D01*
X140384803Y-104254498D01*
X140355501Y-104234919D01*
X140355488Y-104234912D01*
X140218917Y-104178343D01*
X140218907Y-104178340D01*
X140073920Y-104149500D01*
X140073918Y-104149500D01*
X139926082Y-104149500D01*
X139926080Y-104149500D01*
X139781092Y-104178340D01*
X139781082Y-104178343D01*
X139644511Y-104234912D01*
X139644498Y-104234919D01*
X139521584Y-104317048D01*
X139521580Y-104317051D01*
X139417051Y-104421580D01*
X139417048Y-104421584D01*
X139334919Y-104544498D01*
X139334912Y-104544511D01*
X139278343Y-104681082D01*
X139278340Y-104681092D01*
X139249500Y-104826079D01*
X139249500Y-104826082D01*
X139249500Y-104973918D01*
X139249500Y-104973920D01*
X139249499Y-104973920D01*
X137325390Y-104973920D01*
X137166690Y-104560489D01*
X137162453Y-104549452D01*
X137160286Y-104543333D01*
X137158183Y-104536861D01*
X136941939Y-103871334D01*
X136940110Y-103865158D01*
X136757226Y-103182623D01*
X136755715Y-103176326D01*
X136744263Y-103122447D01*
X136608807Y-102485178D01*
X136607636Y-102478860D01*
X136501527Y-101808915D01*
X136500000Y-101789517D01*
X136500000Y-99867117D01*
X137972500Y-99867117D01*
X137972500Y-100132882D01*
X137972501Y-100132899D01*
X138007190Y-100396390D01*
X138075980Y-100653117D01*
X138177683Y-100898652D01*
X138177690Y-100898667D01*
X138310577Y-101128834D01*
X138472372Y-101339690D01*
X138472378Y-101339697D01*
X138660302Y-101527621D01*
X138660309Y-101527627D01*
X138871165Y-101689422D01*
X139101332Y-101822309D01*
X139101347Y-101822316D01*
X139207163Y-101866146D01*
X139346883Y-101924020D01*
X139603606Y-101992809D01*
X139867111Y-102027500D01*
X139867118Y-102027500D01*
X140132882Y-102027500D01*
X140132889Y-102027500D01*
X140396394Y-101992809D01*
X140653117Y-101924020D01*
X140898664Y-101822311D01*
X141128835Y-101689422D01*
X141339692Y-101527626D01*
X141527626Y-101339692D01*
X141689422Y-101128835D01*
X141822311Y-100898664D01*
X141924020Y-100653117D01*
X141992809Y-100396394D01*
X142027500Y-100132889D01*
X142027500Y-99867111D01*
X141992809Y-99603606D01*
X141924020Y-99346883D01*
X141843909Y-99153478D01*
X141822316Y-99101347D01*
X141822309Y-99101332D01*
X141689422Y-98871165D01*
X141527627Y-98660309D01*
X141527621Y-98660302D01*
X141339697Y-98472378D01*
X141339690Y-98472372D01*
X141128834Y-98310577D01*
X140898667Y-98177690D01*
X140898652Y-98177683D01*
X140653117Y-98075980D01*
X140396390Y-98007190D01*
X140132899Y-97972501D01*
X140132894Y-97972500D01*
X140132889Y-97972500D01*
X139867111Y-97972500D01*
X139867105Y-97972500D01*
X139867100Y-97972501D01*
X139603609Y-98007190D01*
X139346882Y-98075980D01*
X139101347Y-98177683D01*
X139101332Y-98177690D01*
X138871165Y-98310577D01*
X138660309Y-98472372D01*
X138660302Y-98472378D01*
X138472378Y-98660302D01*
X138472372Y-98660309D01*
X138310577Y-98871165D01*
X138177690Y-99101332D01*
X138177683Y-99101347D01*
X138075980Y-99346882D01*
X138007190Y-99603609D01*
X137972501Y-99867100D01*
X137972500Y-99867117D01*
X136500000Y-99867117D01*
X136500000Y-98210481D01*
X136501527Y-98191083D01*
X136607637Y-97521132D01*
X136608805Y-97514828D01*
X136755720Y-96823649D01*
X136757224Y-96817385D01*
X136940113Y-96134831D01*
X136941936Y-96128676D01*
X137160294Y-95456643D01*
X137162444Y-95450570D01*
X137415669Y-94790893D01*
X137418139Y-94784930D01*
X137705546Y-94139405D01*
X137708310Y-94133609D01*
X138029111Y-93504002D01*
X138032192Y-93498329D01*
X138385500Y-92886381D01*
X138388849Y-92880916D01*
X138773715Y-92288275D01*
X138777345Y-92282994D01*
X139192690Y-91711321D01*
X139196604Y-91706219D01*
X139641290Y-91157076D01*
X139645500Y-91152148D01*
X140118301Y-90627049D01*
X140122733Y-90622379D01*
X140622379Y-90122733D01*
X140627049Y-90118301D01*
X141152156Y-89645493D01*
X141157084Y-89641284D01*
X141161551Y-89637667D01*
X141706219Y-89196604D01*
X141711321Y-89192690D01*
X141937615Y-89028277D01*
X142003421Y-89004798D01*
X142071475Y-89020624D01*
X142120170Y-89070730D01*
X142134500Y-89128596D01*
X142134500Y-89770354D01*
X142133238Y-89787999D01*
X142129500Y-89813996D01*
X142129500Y-92026667D01*
X142109815Y-92093706D01*
X142108603Y-92095557D01*
X142064033Y-92162260D01*
X142064032Y-92162264D01*
X142049500Y-92235321D01*
X142049500Y-92375500D01*
X142046949Y-92384185D01*
X142048238Y-92393147D01*
X142037259Y-92417187D01*
X142029815Y-92442539D01*
X142022974Y-92448466D01*
X142019213Y-92456703D01*
X141996978Y-92470992D01*
X141977011Y-92488294D01*
X141966496Y-92490581D01*
X141960435Y-92494477D01*
X141925500Y-92499500D01*
X141814797Y-92499500D01*
X141747758Y-92479815D01*
X141740486Y-92474767D01*
X141702330Y-92446203D01*
X141702328Y-92446202D01*
X141567482Y-92395908D01*
X141567483Y-92395908D01*
X141507883Y-92389501D01*
X141507881Y-92389500D01*
X141507873Y-92389500D01*
X141507864Y-92389500D01*
X140462129Y-92389500D01*
X140462123Y-92389501D01*
X140402516Y-92395908D01*
X140320010Y-92426682D01*
X140276677Y-92434500D01*
X139608997Y-92434500D01*
X139554687Y-92440338D01*
X139503181Y-92451543D01*
X139503172Y-92451546D01*
X139476807Y-92458779D01*
X139476796Y-92458783D01*
X139390181Y-92508105D01*
X139390173Y-92508111D01*
X139337371Y-92553863D01*
X139305743Y-92586640D01*
X139259534Y-92674977D01*
X139259533Y-92674977D01*
X139239851Y-92742009D01*
X139239848Y-92742021D01*
X139229500Y-92813998D01*
X139229500Y-94066002D01*
X139235338Y-94120312D01*
X139246543Y-94171818D01*
X139246546Y-94171827D01*
X139253779Y-94198192D01*
X139253783Y-94198203D01*
X139303105Y-94284818D01*
X139303110Y-94284825D01*
X139303112Y-94284828D01*
X139317597Y-94301544D01*
X139348863Y-94337628D01*
X139348866Y-94337631D01*
X139348867Y-94337632D01*
X139381641Y-94369257D01*
X139469976Y-94415465D01*
X139469977Y-94415465D01*
X139469977Y-94415466D01*
X139520105Y-94430184D01*
X139537015Y-94435150D01*
X139537019Y-94435150D01*
X139537021Y-94435151D01*
X139548652Y-94436823D01*
X139609000Y-94445500D01*
X140191474Y-94445500D01*
X140258513Y-94465185D01*
X140304268Y-94517989D01*
X140314212Y-94587147D01*
X140307655Y-94612835D01*
X140305908Y-94617516D01*
X140300586Y-94667023D01*
X140299501Y-94677123D01*
X140299500Y-94677135D01*
X140299500Y-95722870D01*
X140299501Y-95722876D01*
X140305908Y-95782483D01*
X140356202Y-95917328D01*
X140356206Y-95917335D01*
X140442452Y-96032544D01*
X140442455Y-96032547D01*
X140557664Y-96118793D01*
X140557671Y-96118797D01*
X140600755Y-96134866D01*
X140692517Y-96169091D01*
X140752127Y-96175500D01*
X141347872Y-96175499D01*
X141407483Y-96169091D01*
X141542331Y-96118796D01*
X141657546Y-96032546D01*
X141743796Y-95917331D01*
X141794091Y-95782483D01*
X141800500Y-95722873D01*
X141800499Y-94677128D01*
X141794091Y-94617517D01*
X141751455Y-94503206D01*
X141749929Y-94481863D01*
X141743648Y-94461411D01*
X141747487Y-94447710D01*
X141746472Y-94433516D01*
X141756726Y-94414735D01*
X141762500Y-94394133D01*
X141777634Y-94376445D01*
X141779957Y-94372193D01*
X141785280Y-94367175D01*
X141785790Y-94366721D01*
X141832632Y-94326133D01*
X141839579Y-94318933D01*
X141843142Y-94315768D01*
X141870596Y-94302816D01*
X141896984Y-94287790D01*
X141901890Y-94288052D01*
X141906333Y-94285957D01*
X141936432Y-94289904D01*
X141966753Y-94291530D01*
X141970738Y-94294404D01*
X141975610Y-94295043D01*
X141998801Y-94314640D01*
X142023425Y-94332397D01*
X142025223Y-94336968D01*
X142028977Y-94340140D01*
X142037889Y-94369160D01*
X142049007Y-94397415D01*
X142049421Y-94406706D01*
X142049490Y-94406930D01*
X142049439Y-94407110D01*
X142049500Y-94408467D01*
X142049500Y-94564678D01*
X142064032Y-94637735D01*
X142064033Y-94637739D01*
X142065392Y-94639773D01*
X142119399Y-94720601D01*
X142184184Y-94763888D01*
X142202260Y-94775966D01*
X142202264Y-94775967D01*
X142275321Y-94790499D01*
X142275324Y-94790500D01*
X142275326Y-94790500D01*
X143061408Y-94790500D01*
X143061410Y-94790500D01*
X143160728Y-94763888D01*
X143249773Y-94712478D01*
X143322478Y-94639773D01*
X143373888Y-94550728D01*
X143400500Y-94451410D01*
X143400500Y-94348590D01*
X143373888Y-94249272D01*
X143322478Y-94160227D01*
X143249773Y-94087522D01*
X143249772Y-94087521D01*
X143249769Y-94087519D01*
X143160730Y-94036113D01*
X143160729Y-94036112D01*
X143160728Y-94036112D01*
X143099753Y-94019774D01*
X143040094Y-93983410D01*
X143009565Y-93920563D01*
X143017860Y-93851188D01*
X143062345Y-93797310D01*
X143099752Y-93780226D01*
X143160728Y-93763888D01*
X143249773Y-93712478D01*
X143322478Y-93639773D01*
X143373888Y-93550728D01*
X143400500Y-93451410D01*
X143400500Y-93348590D01*
X143373888Y-93249272D01*
X143352368Y-93211999D01*
X143335896Y-93144100D01*
X143352369Y-93088000D01*
X143373888Y-93050728D01*
X143400500Y-92951410D01*
X143400500Y-92848590D01*
X143373888Y-92749272D01*
X143352368Y-92711999D01*
X143335896Y-92644100D01*
X143352369Y-92588000D01*
X143353154Y-92586640D01*
X143373888Y-92550728D01*
X143400500Y-92451410D01*
X143400500Y-92348590D01*
X143373888Y-92249272D01*
X143357111Y-92220214D01*
X143340500Y-92158216D01*
X143340500Y-90620469D01*
X143360185Y-90553430D01*
X143395608Y-90517368D01*
X143465601Y-90470601D01*
X143520966Y-90387740D01*
X143535500Y-90314674D01*
X143535500Y-89065326D01*
X143535500Y-89065323D01*
X143535499Y-89065321D01*
X143520967Y-88992264D01*
X143520966Y-88992260D01*
X143465601Y-88909399D01*
X143382740Y-88854034D01*
X143382739Y-88854033D01*
X143382735Y-88854032D01*
X143309677Y-88839500D01*
X143309674Y-88839500D01*
X142605593Y-88839500D01*
X142538554Y-88819815D01*
X142492799Y-88767011D01*
X142482855Y-88697853D01*
X142511880Y-88634297D01*
X142538055Y-88611506D01*
X142880932Y-88388838D01*
X142886381Y-88385500D01*
X143426054Y-88073920D01*
X149249499Y-88073920D01*
X149278340Y-88218907D01*
X149278343Y-88218917D01*
X149334912Y-88355488D01*
X149334919Y-88355501D01*
X149417048Y-88478415D01*
X149417051Y-88478419D01*
X149521580Y-88582948D01*
X149521584Y-88582951D01*
X149644498Y-88665080D01*
X149644511Y-88665087D01*
X149781082Y-88721656D01*
X149781087Y-88721658D01*
X149781091Y-88721658D01*
X149781092Y-88721659D01*
X149926079Y-88750500D01*
X149926082Y-88750500D01*
X150073920Y-88750500D01*
X150171462Y-88731096D01*
X150218913Y-88721658D01*
X150355495Y-88665084D01*
X150478416Y-88582951D01*
X150582951Y-88478416D01*
X150665084Y-88355495D01*
X150721658Y-88218913D01*
X150750500Y-88073918D01*
X150750500Y-87926082D01*
X150750500Y-87926079D01*
X150721659Y-87781092D01*
X150721658Y-87781091D01*
X150721658Y-87781087D01*
X150701464Y-87732334D01*
X150665087Y-87644511D01*
X150665080Y-87644498D01*
X150582951Y-87521584D01*
X150582948Y-87521580D01*
X150478419Y-87417051D01*
X150478415Y-87417048D01*
X150355501Y-87334919D01*
X150355488Y-87334912D01*
X150218917Y-87278343D01*
X150218907Y-87278340D01*
X150073920Y-87249500D01*
X150073918Y-87249500D01*
X149926082Y-87249500D01*
X149926080Y-87249500D01*
X149781092Y-87278340D01*
X149781082Y-87278343D01*
X149644511Y-87334912D01*
X149644498Y-87334919D01*
X149521584Y-87417048D01*
X149521580Y-87417051D01*
X149417051Y-87521580D01*
X149417048Y-87521584D01*
X149334919Y-87644498D01*
X149334912Y-87644511D01*
X149278343Y-87781082D01*
X149278340Y-87781092D01*
X149249500Y-87926079D01*
X149249500Y-87926082D01*
X149249500Y-88073918D01*
X149249500Y-88073920D01*
X149249499Y-88073920D01*
X143426054Y-88073920D01*
X143498329Y-88032192D01*
X143504002Y-88029111D01*
X144133609Y-87708310D01*
X144139405Y-87705546D01*
X144784930Y-87418139D01*
X144790893Y-87415669D01*
X145450570Y-87162444D01*
X145456643Y-87160294D01*
X146128676Y-86941936D01*
X146134831Y-86940113D01*
X146817385Y-86757224D01*
X146823649Y-86755720D01*
X147514828Y-86608805D01*
X147521132Y-86607637D01*
X148191085Y-86501527D01*
X148210483Y-86500000D01*
X151789517Y-86500000D01*
X151808915Y-86501527D01*
G37*
G04 #@! TD.AperFunction*
G04 #@! TD*
M02*
