G04 #@! TF.GenerationSoftware,KiCad,Pcbnew,9.0.3*
G04 #@! TF.CreationDate,2026-03-05T20:45:27-08:00*
G04 #@! TF.ProjectId,harp.peripheral.poke-port,68617270-2e70-4657-9269-70686572616c,rev?*
G04 #@! TF.SameCoordinates,Original*
G04 #@! TF.FileFunction,Copper,L2,Bot*
G04 #@! TF.FilePolarity,Positive*
%FSLAX46Y46*%
G04 Gerber Fmt 4.6, Leading zero omitted, Abs format (unit mm)*
G04 Created by KiCad (PCBNEW 9.0.3) date 2026-03-05 20:45:27*
%MOMM*%
%LPD*%
G01*
G04 APERTURE LIST*
G04 #@! TA.AperFunction,ComponentPad*
%ADD10C,0.600000*%
G04 #@! TD*
G04 #@! TA.AperFunction,SMDPad,CuDef*
%ADD11R,2.300000X2.300000*%
G04 #@! TD*
G04 #@! TA.AperFunction,ComponentPad*
%ADD12C,1.800000*%
G04 #@! TD*
G04 #@! TA.AperFunction,ComponentPad*
%ADD13C,1.240000*%
G04 #@! TD*
G04 #@! TA.AperFunction,ViaPad*
%ADD14C,0.457200*%
G04 #@! TD*
G04 #@! TA.AperFunction,Conductor*
%ADD15C,0.800000*%
G04 #@! TD*
G04 #@! TA.AperFunction,Conductor*
%ADD16C,0.350000*%
G04 #@! TD*
G04 APERTURE END LIST*
D10*
G04 #@! TO.P,U1,11,PGND*
G04 #@! TO.N,GND*
X143700000Y-92900000D03*
X143700000Y-93900000D03*
D11*
X144199000Y-93400000D03*
D10*
X144200000Y-93400000D03*
X144700000Y-92900000D03*
X144700000Y-93900000D03*
G04 #@! TD*
D12*
G04 #@! TO.P,J1,*
G04 #@! TO.N,*
X158000000Y-96000000D03*
X158000000Y-104000000D03*
G04 #@! TO.P,J1,1,Pin_1*
G04 #@! TO.N,/TTL_POKE*
X158000000Y-102000000D03*
G04 #@! TO.P,J1,2,Pin_2*
G04 #@! TO.N,VPP*
X158000000Y-100000000D03*
G04 #@! TO.P,J1,3,Pin_3*
G04 #@! TO.N,GND*
X158000000Y-98000000D03*
G04 #@! TD*
D13*
G04 #@! TO.P,U2,A*
G04 #@! TO.N,Net-(R3-Pad2)*
X149030000Y-90050000D03*
G04 #@! TO.P,U2,C*
G04 #@! TO.N,+5V*
X150970000Y-109950000D03*
G04 #@! TO.P,U2,E*
G04 #@! TO.N,/POKE*
X149030000Y-109950000D03*
G04 #@! TO.P,U2,K*
G04 #@! TO.N,GND*
X150970000Y-90050000D03*
G04 #@! TD*
D14*
G04 #@! TO.N,GND*
X150000000Y-109200000D03*
X138000000Y-95200000D03*
X144785000Y-91390000D03*
X144410000Y-101010000D03*
X145410000Y-101910000D03*
X141300000Y-89900000D03*
X148200000Y-92400000D03*
X150000000Y-92800000D03*
X144510000Y-95815000D03*
X143860000Y-95815000D03*
X143585000Y-91390000D03*
X144785000Y-95490000D03*
X144460000Y-91115000D03*
X153000000Y-93200000D03*
X143585000Y-95490000D03*
X143900000Y-105100000D03*
X143910000Y-91115000D03*
G04 #@! TO.N,VPP*
X139835000Y-93900000D03*
X139835000Y-93100000D03*
G04 #@! TO.N,+5V*
X147900000Y-105600000D03*
X148000000Y-96700000D03*
X147900000Y-102800000D03*
G04 #@! TD*
D15*
G04 #@! TO.N,VPP*
X158000000Y-100000000D02*
X155800000Y-100000000D01*
X142635000Y-96700000D02*
X139835000Y-93900000D01*
X151600000Y-95800000D02*
X147100000Y-95800000D01*
X147100000Y-95800000D02*
X146200000Y-96700000D01*
X146200000Y-96700000D02*
X142635000Y-96700000D01*
X139835000Y-92740000D02*
X139835000Y-94000000D01*
X155800000Y-100000000D02*
X151600000Y-95800000D01*
X142485000Y-90090000D02*
X139835000Y-92740000D01*
D16*
G04 #@! TO.N,+5V*
X147900000Y-102800000D02*
X147900000Y-105600000D01*
G04 #@! TD*
G04 #@! TA.AperFunction,Conductor*
G04 #@! TO.N,GND*
G36*
X151808915Y-86501527D02*
G01*
X152478860Y-86607636D01*
X152485178Y-86608807D01*
X153176341Y-86755718D01*
X153182623Y-86757226D01*
X153865158Y-86940110D01*
X153871334Y-86941939D01*
X154543344Y-87160290D01*
X154549441Y-87162448D01*
X155052890Y-87355704D01*
X155209089Y-87415663D01*
X155215082Y-87418145D01*
X155860579Y-87705539D01*
X155866405Y-87708317D01*
X156495386Y-88028800D01*
X156495981Y-88029103D01*
X156501686Y-88032201D01*
X157113601Y-88385490D01*
X157119100Y-88388860D01*
X157711706Y-88773703D01*
X157717023Y-88777358D01*
X158288653Y-89192671D01*
X158293804Y-89196623D01*
X158842915Y-89641284D01*
X158847851Y-89645500D01*
X159372930Y-90118283D01*
X159377639Y-90122752D01*
X159877247Y-90622360D01*
X159881716Y-90627069D01*
X160354499Y-91152148D01*
X160358715Y-91157084D01*
X160803376Y-91706195D01*
X160807328Y-91711346D01*
X161222630Y-92282960D01*
X161226301Y-92288301D01*
X161611128Y-92880881D01*
X161614520Y-92886416D01*
X161967798Y-93498313D01*
X161970896Y-93504018D01*
X162291673Y-94133577D01*
X162294468Y-94139437D01*
X162581852Y-94784913D01*
X162584336Y-94790910D01*
X162837546Y-95450546D01*
X162839713Y-95456666D01*
X163058052Y-96128641D01*
X163059896Y-96134866D01*
X163242769Y-96817361D01*
X163244284Y-96823673D01*
X163391186Y-97514789D01*
X163392369Y-97521172D01*
X163502898Y-98219025D01*
X163503746Y-98225462D01*
X163577603Y-98928169D01*
X163578112Y-98934640D01*
X163615091Y-99640228D01*
X163615261Y-99646718D01*
X163615261Y-100353281D01*
X163615091Y-100359771D01*
X163578112Y-101065359D01*
X163577603Y-101071830D01*
X163503746Y-101774537D01*
X163502898Y-101780974D01*
X163392369Y-102478827D01*
X163391186Y-102485210D01*
X163244284Y-103176326D01*
X163242769Y-103182638D01*
X163059896Y-103865133D01*
X163058052Y-103871358D01*
X162839713Y-104543333D01*
X162837546Y-104549453D01*
X162584336Y-105209089D01*
X162581852Y-105215086D01*
X162294468Y-105860562D01*
X162291673Y-105866422D01*
X161970896Y-106495981D01*
X161967798Y-106501686D01*
X161614520Y-107113583D01*
X161611128Y-107119118D01*
X161226307Y-107711689D01*
X161222630Y-107717039D01*
X160807328Y-108288653D01*
X160803376Y-108293804D01*
X160358715Y-108842915D01*
X160354499Y-108847851D01*
X159881716Y-109372930D01*
X159877247Y-109377639D01*
X159377639Y-109877247D01*
X159372930Y-109881716D01*
X158847851Y-110354499D01*
X158842915Y-110358715D01*
X158293804Y-110803376D01*
X158288653Y-110807328D01*
X157717039Y-111222630D01*
X157711689Y-111226307D01*
X157119118Y-111611128D01*
X157113583Y-111614520D01*
X156501686Y-111967798D01*
X156495981Y-111970896D01*
X155866422Y-112291673D01*
X155860562Y-112294468D01*
X155215086Y-112581852D01*
X155209089Y-112584336D01*
X154549453Y-112837546D01*
X154543333Y-112839713D01*
X153871358Y-113058052D01*
X153865133Y-113059896D01*
X153182638Y-113242769D01*
X153176326Y-113244284D01*
X152485210Y-113391186D01*
X152478827Y-113392369D01*
X151780974Y-113502898D01*
X151774537Y-113503746D01*
X151071830Y-113577603D01*
X151065359Y-113578112D01*
X150359772Y-113615091D01*
X150353282Y-113615261D01*
X149646718Y-113615261D01*
X149640228Y-113615091D01*
X148934640Y-113578112D01*
X148928169Y-113577603D01*
X148225462Y-113503746D01*
X148219025Y-113502898D01*
X147521172Y-113392369D01*
X147514789Y-113391186D01*
X146823673Y-113244284D01*
X146817361Y-113242769D01*
X146134866Y-113059896D01*
X146128641Y-113058052D01*
X145456666Y-112839713D01*
X145450546Y-112837546D01*
X144790910Y-112584336D01*
X144784913Y-112581852D01*
X144139437Y-112294468D01*
X144133577Y-112291673D01*
X143504018Y-111970896D01*
X143498313Y-111967798D01*
X142886416Y-111614520D01*
X142880881Y-111611128D01*
X142288310Y-111226307D01*
X142282960Y-111222630D01*
X141711346Y-110807328D01*
X141706195Y-110803376D01*
X141157084Y-110358715D01*
X141152148Y-110354499D01*
X140627069Y-109881716D01*
X140622360Y-109877247D01*
X140174781Y-109429668D01*
X143272500Y-109429668D01*
X143272500Y-109622891D01*
X143302725Y-109813721D01*
X143362429Y-109997474D01*
X143450147Y-110169629D01*
X143563715Y-110325943D01*
X143700336Y-110462564D01*
X143856650Y-110576132D01*
X144028805Y-110663850D01*
X144120681Y-110693702D01*
X144212560Y-110723555D01*
X144300943Y-110737553D01*
X144403389Y-110753780D01*
X144403394Y-110753780D01*
X144596611Y-110753780D01*
X144689123Y-110739126D01*
X144787440Y-110723555D01*
X144971197Y-110663849D01*
X145143350Y-110576132D01*
X145299663Y-110462565D01*
X145436285Y-110325943D01*
X145549852Y-110169630D01*
X145618073Y-110035739D01*
X148159499Y-110035739D01*
X148192951Y-110203909D01*
X148192954Y-110203919D01*
X148258570Y-110362332D01*
X148353839Y-110504913D01*
X148475086Y-110626160D01*
X148617667Y-110721429D01*
X148776080Y-110787045D01*
X148776085Y-110787047D01*
X148776089Y-110787047D01*
X148776090Y-110787048D01*
X148944260Y-110820500D01*
X148944263Y-110820500D01*
X149115739Y-110820500D01*
X149228881Y-110797993D01*
X149283915Y-110787047D01*
X149437199Y-110723555D01*
X149442332Y-110721429D01*
X149442333Y-110721428D01*
X149442336Y-110721427D01*
X149584911Y-110626162D01*
X149706162Y-110504911D01*
X149801427Y-110362336D01*
X149816502Y-110325943D01*
X149867045Y-110203919D01*
X149867047Y-110203915D01*
X149878383Y-110146928D01*
X149910768Y-110085017D01*
X149971484Y-110050443D01*
X150041253Y-110054182D01*
X150097925Y-110095049D01*
X150121617Y-110146928D01*
X150132951Y-110203907D01*
X150132954Y-110203919D01*
X150198570Y-110362332D01*
X150293839Y-110504913D01*
X150415086Y-110626160D01*
X150557667Y-110721429D01*
X150716080Y-110787045D01*
X150716085Y-110787047D01*
X150716089Y-110787047D01*
X150716090Y-110787048D01*
X150884260Y-110820500D01*
X150884263Y-110820500D01*
X151055739Y-110820500D01*
X151168881Y-110797993D01*
X151223915Y-110787047D01*
X151377199Y-110723555D01*
X151382332Y-110721429D01*
X151382333Y-110721428D01*
X151382336Y-110721427D01*
X151524911Y-110626162D01*
X151646162Y-110504911D01*
X151741427Y-110362336D01*
X151756502Y-110325943D01*
X151807045Y-110203919D01*
X151807047Y-110203915D01*
X151840500Y-110035737D01*
X151840500Y-109864263D01*
X151840500Y-109864260D01*
X151807048Y-109696090D01*
X151807047Y-109696089D01*
X151807047Y-109696085D01*
X151776727Y-109622886D01*
X151741429Y-109537667D01*
X151646160Y-109395086D01*
X151524913Y-109273839D01*
X151382332Y-109178570D01*
X151223919Y-109112954D01*
X151223909Y-109112951D01*
X151055739Y-109079500D01*
X151055737Y-109079500D01*
X150884263Y-109079500D01*
X150884261Y-109079500D01*
X150716090Y-109112951D01*
X150716080Y-109112954D01*
X150557667Y-109178570D01*
X150415086Y-109273839D01*
X150293839Y-109395086D01*
X150198570Y-109537667D01*
X150132954Y-109696080D01*
X150132951Y-109696090D01*
X150121617Y-109753072D01*
X150089232Y-109814983D01*
X150028516Y-109849557D01*
X149958747Y-109845817D01*
X149902075Y-109804950D01*
X149878383Y-109753072D01*
X149867048Y-109696090D01*
X149867047Y-109696089D01*
X149867047Y-109696085D01*
X149836727Y-109622886D01*
X149801429Y-109537667D01*
X149706160Y-109395086D01*
X149584913Y-109273839D01*
X149442332Y-109178570D01*
X149283919Y-109112954D01*
X149283909Y-109112951D01*
X149115739Y-109079500D01*
X149115737Y-109079500D01*
X148944263Y-109079500D01*
X148944261Y-109079500D01*
X148776090Y-109112951D01*
X148776080Y-109112954D01*
X148617667Y-109178570D01*
X148475086Y-109273839D01*
X148353839Y-109395086D01*
X148258570Y-109537667D01*
X148192954Y-109696080D01*
X148192951Y-109696090D01*
X148159500Y-109864260D01*
X148159500Y-109864263D01*
X148159500Y-110035737D01*
X148159500Y-110035739D01*
X148159499Y-110035739D01*
X145618073Y-110035739D01*
X145637569Y-109997477D01*
X145637570Y-109997474D01*
X145695283Y-109819853D01*
X145695283Y-109819852D01*
X145697274Y-109813724D01*
X145697274Y-109813723D01*
X145697273Y-109813723D01*
X145697275Y-109813720D01*
X145715906Y-109696090D01*
X145727500Y-109622891D01*
X145727500Y-109429668D01*
X145702818Y-109273838D01*
X145697275Y-109238840D01*
X145637569Y-109055083D01*
X145549852Y-108882930D01*
X145436285Y-108726617D01*
X145299663Y-108589995D01*
X145143350Y-108476428D01*
X145143351Y-108476428D01*
X145143349Y-108476427D01*
X144971194Y-108388709D01*
X144787441Y-108329005D01*
X144596611Y-108298780D01*
X144596606Y-108298780D01*
X144403394Y-108298780D01*
X144403389Y-108298780D01*
X144212558Y-108329005D01*
X144028805Y-108388709D01*
X143856650Y-108476427D01*
X143700336Y-108589995D01*
X143563715Y-108726616D01*
X143450147Y-108882930D01*
X143362429Y-109055085D01*
X143302725Y-109238838D01*
X143272500Y-109429668D01*
X140174781Y-109429668D01*
X140122752Y-109377639D01*
X140118283Y-109372930D01*
X139645500Y-108847851D01*
X139641284Y-108842915D01*
X139273477Y-108388711D01*
X139196619Y-108293798D01*
X139192671Y-108288653D01*
X139091478Y-108149373D01*
X138777358Y-107717023D01*
X138773703Y-107711706D01*
X138388860Y-107119100D01*
X138385490Y-107113601D01*
X138032201Y-106501686D01*
X138029103Y-106495981D01*
X138028800Y-106495386D01*
X137708317Y-105866405D01*
X137705539Y-105860579D01*
X137418145Y-105215082D01*
X137415663Y-105209089D01*
X137393173Y-105150500D01*
X137162448Y-104549441D01*
X137160286Y-104543333D01*
X136941939Y-103871334D01*
X136940110Y-103865158D01*
X136757226Y-103182623D01*
X136755715Y-103176326D01*
X136744263Y-103122447D01*
X136662318Y-102736925D01*
X147420900Y-102736925D01*
X147420900Y-102863075D01*
X147424780Y-102877554D01*
X147453551Y-102984929D01*
X147457885Y-102992435D01*
X147474500Y-103054438D01*
X147474500Y-105345561D01*
X147457889Y-105407558D01*
X147453551Y-105415071D01*
X147453550Y-105415072D01*
X147437225Y-105475999D01*
X147420900Y-105536925D01*
X147420900Y-105663075D01*
X147453550Y-105784926D01*
X147516625Y-105894174D01*
X147605826Y-105983375D01*
X147715074Y-106046450D01*
X147836925Y-106079100D01*
X147836928Y-106079100D01*
X147963072Y-106079100D01*
X147963075Y-106079100D01*
X148084926Y-106046450D01*
X148194174Y-105983375D01*
X148283375Y-105894174D01*
X148346450Y-105784926D01*
X148379100Y-105663075D01*
X148379100Y-105536925D01*
X148346450Y-105415074D01*
X148342111Y-105407558D01*
X148325500Y-105345561D01*
X148325500Y-103054438D01*
X148342115Y-102992435D01*
X148346448Y-102984929D01*
X148346447Y-102984929D01*
X148346450Y-102984926D01*
X148379100Y-102863075D01*
X148379100Y-102736925D01*
X148346450Y-102615074D01*
X148283375Y-102505826D01*
X148194174Y-102416625D01*
X148084926Y-102353550D01*
X147963075Y-102320900D01*
X147836925Y-102320900D01*
X147715074Y-102353550D01*
X147715072Y-102353550D01*
X147715072Y-102353551D01*
X147605826Y-102416625D01*
X147605823Y-102416627D01*
X147516627Y-102505823D01*
X147516625Y-102505826D01*
X147453550Y-102615074D01*
X147420900Y-102736925D01*
X136662318Y-102736925D01*
X136608807Y-102485178D01*
X136607636Y-102478860D01*
X136501527Y-101808915D01*
X136500000Y-101789517D01*
X136500000Y-99867117D01*
X137972500Y-99867117D01*
X137972500Y-100132882D01*
X137972501Y-100132899D01*
X138007190Y-100396390D01*
X138075980Y-100653117D01*
X138177683Y-100898652D01*
X138177690Y-100898667D01*
X138310577Y-101128834D01*
X138472372Y-101339690D01*
X138472378Y-101339697D01*
X138660302Y-101527621D01*
X138660309Y-101527627D01*
X138871165Y-101689422D01*
X139101332Y-101822309D01*
X139101347Y-101822316D01*
X139207163Y-101866146D01*
X139346883Y-101924020D01*
X139603606Y-101992809D01*
X139867111Y-102027500D01*
X139867118Y-102027500D01*
X140132882Y-102027500D01*
X140132889Y-102027500D01*
X140396394Y-101992809D01*
X140653117Y-101924020D01*
X140898664Y-101822311D01*
X141128835Y-101689422D01*
X141339692Y-101527626D01*
X141527626Y-101339692D01*
X141689422Y-101128835D01*
X141822311Y-100898664D01*
X141924020Y-100653117D01*
X141992809Y-100396394D01*
X142027500Y-100132889D01*
X142027500Y-99867117D01*
X147972500Y-99867117D01*
X147972500Y-100132882D01*
X147972501Y-100132899D01*
X148007190Y-100396390D01*
X148075980Y-100653117D01*
X148177683Y-100898652D01*
X148177690Y-100898667D01*
X148310577Y-101128834D01*
X148472372Y-101339690D01*
X148472378Y-101339697D01*
X148660302Y-101527621D01*
X148660309Y-101527627D01*
X148871165Y-101689422D01*
X149101332Y-101822309D01*
X149101347Y-101822316D01*
X149207163Y-101866146D01*
X149346883Y-101924020D01*
X149603606Y-101992809D01*
X149867111Y-102027500D01*
X149867118Y-102027500D01*
X150132882Y-102027500D01*
X150132889Y-102027500D01*
X150396394Y-101992809D01*
X150653117Y-101924020D01*
X150898664Y-101822311D01*
X151128835Y-101689422D01*
X151339692Y-101527626D01*
X151527626Y-101339692D01*
X151689422Y-101128835D01*
X151822311Y-100898664D01*
X151924020Y-100653117D01*
X151992809Y-100396394D01*
X152027500Y-100132889D01*
X152027500Y-99867111D01*
X151992809Y-99603606D01*
X151924020Y-99346883D01*
X151866146Y-99207163D01*
X151822316Y-99101347D01*
X151822309Y-99101332D01*
X151689422Y-98871165D01*
X151527627Y-98660309D01*
X151527621Y-98660302D01*
X151339697Y-98472378D01*
X151339690Y-98472372D01*
X151128834Y-98310577D01*
X150898667Y-98177690D01*
X150898652Y-98177683D01*
X150653117Y-98075980D01*
X150396390Y-98007190D01*
X150132899Y-97972501D01*
X150132894Y-97972500D01*
X150132889Y-97972500D01*
X149867111Y-97972500D01*
X149867105Y-97972500D01*
X149867100Y-97972501D01*
X149603609Y-98007190D01*
X149346882Y-98075980D01*
X149101347Y-98177683D01*
X149101332Y-98177690D01*
X148871165Y-98310577D01*
X148660309Y-98472372D01*
X148660302Y-98472378D01*
X148472378Y-98660302D01*
X148472372Y-98660309D01*
X148310577Y-98871165D01*
X148177690Y-99101332D01*
X148177683Y-99101347D01*
X148075980Y-99346882D01*
X148007190Y-99603609D01*
X147972501Y-99867100D01*
X147972500Y-99867117D01*
X142027500Y-99867117D01*
X142027500Y-99867111D01*
X141992809Y-99603606D01*
X141924020Y-99346883D01*
X141866146Y-99207163D01*
X141822316Y-99101347D01*
X141822309Y-99101332D01*
X141689422Y-98871165D01*
X141527627Y-98660309D01*
X141527621Y-98660302D01*
X141339697Y-98472378D01*
X141339690Y-98472372D01*
X141128834Y-98310577D01*
X140898667Y-98177690D01*
X140898652Y-98177683D01*
X140653117Y-98075980D01*
X140396390Y-98007190D01*
X140132899Y-97972501D01*
X140132894Y-97972500D01*
X140132889Y-97972500D01*
X139867111Y-97972500D01*
X139867105Y-97972500D01*
X139867100Y-97972501D01*
X139603609Y-98007190D01*
X139346882Y-98075980D01*
X139101347Y-98177683D01*
X139101332Y-98177690D01*
X138871165Y-98310577D01*
X138660309Y-98472372D01*
X138660302Y-98472378D01*
X138472378Y-98660302D01*
X138472372Y-98660309D01*
X138310577Y-98871165D01*
X138177690Y-99101332D01*
X138177683Y-99101347D01*
X138075980Y-99346882D01*
X138007190Y-99603609D01*
X137972501Y-99867100D01*
X137972500Y-99867117D01*
X136500000Y-99867117D01*
X136500000Y-98210481D01*
X136501527Y-98191083D01*
X136607637Y-97521132D01*
X136608805Y-97514828D01*
X136755720Y-96823649D01*
X136757224Y-96817385D01*
X136940113Y-96134831D01*
X136941936Y-96128676D01*
X137160294Y-95456643D01*
X137162444Y-95450570D01*
X137415669Y-94790893D01*
X137418139Y-94784930D01*
X137705546Y-94139405D01*
X137708310Y-94133609D01*
X137743741Y-94064071D01*
X139184499Y-94064071D01*
X139209497Y-94189738D01*
X139209499Y-94189744D01*
X139258533Y-94308124D01*
X139258538Y-94308133D01*
X139329723Y-94414668D01*
X139329726Y-94414672D01*
X139420327Y-94505273D01*
X139420331Y-94505276D01*
X139526866Y-94576461D01*
X139526878Y-94576468D01*
X139614442Y-94612737D01*
X139654671Y-94639617D01*
X142220325Y-97205272D01*
X142220326Y-97205273D01*
X142220329Y-97205275D01*
X142220331Y-97205277D01*
X142326873Y-97276465D01*
X142445256Y-97325501D01*
X142445260Y-97325501D01*
X142445261Y-97325502D01*
X142570928Y-97350500D01*
X142570931Y-97350500D01*
X146264071Y-97350500D01*
X146348615Y-97333682D01*
X146389744Y-97325501D01*
X146508127Y-97276465D01*
X146614669Y-97205277D01*
X147317344Y-96502600D01*
X147378665Y-96469117D01*
X147448356Y-96474101D01*
X147504290Y-96515972D01*
X147528707Y-96581437D01*
X147524799Y-96622373D01*
X147520900Y-96636925D01*
X147520900Y-96763075D01*
X147553550Y-96884926D01*
X147616625Y-96994174D01*
X147705826Y-97083375D01*
X147815074Y-97146450D01*
X147936925Y-97179100D01*
X147936928Y-97179100D01*
X148063072Y-97179100D01*
X148063075Y-97179100D01*
X148184926Y-97146450D01*
X148294174Y-97083375D01*
X148383375Y-96994174D01*
X148446450Y-96884926D01*
X148479100Y-96763075D01*
X148479100Y-96636925D01*
X148470972Y-96606591D01*
X148472635Y-96536744D01*
X148511797Y-96478881D01*
X148576025Y-96451377D01*
X148590747Y-96450500D01*
X151279192Y-96450500D01*
X151346231Y-96470185D01*
X151366873Y-96486819D01*
X155385325Y-100505272D01*
X155385326Y-100505273D01*
X155385329Y-100505275D01*
X155385331Y-100505277D01*
X155491873Y-100576465D01*
X155610256Y-100625501D01*
X155610260Y-100625501D01*
X155610261Y-100625502D01*
X155735928Y-100650500D01*
X155735931Y-100650500D01*
X156987337Y-100650500D01*
X157054376Y-100670185D01*
X157087655Y-100701615D01*
X157122441Y-100749494D01*
X157122445Y-100749499D01*
X157250500Y-100877554D01*
X157280956Y-100899682D01*
X157323621Y-100955013D01*
X157329600Y-101024626D01*
X157296994Y-101086421D01*
X157280956Y-101100318D01*
X157250500Y-101122445D01*
X157122445Y-101250500D01*
X157122441Y-101250505D01*
X157016006Y-101397002D01*
X156933788Y-101558360D01*
X156933787Y-101558363D01*
X156877829Y-101730589D01*
X156849500Y-101909448D01*
X156849500Y-102090551D01*
X156877829Y-102269410D01*
X156933787Y-102441636D01*
X156933788Y-102441639D01*
X157016006Y-102602997D01*
X157122441Y-102749494D01*
X157122445Y-102749499D01*
X157250500Y-102877554D01*
X157280956Y-102899682D01*
X157323621Y-102955013D01*
X157329600Y-103024626D01*
X157296994Y-103086421D01*
X157280956Y-103100318D01*
X157250500Y-103122445D01*
X157122445Y-103250500D01*
X157122441Y-103250505D01*
X157016006Y-103397002D01*
X156933788Y-103558360D01*
X156933787Y-103558363D01*
X156877829Y-103730589D01*
X156849500Y-103909448D01*
X156849500Y-104090551D01*
X156877829Y-104269410D01*
X156933787Y-104441636D01*
X156933788Y-104441639D01*
X157016006Y-104602997D01*
X157122441Y-104749494D01*
X157122445Y-104749499D01*
X157250500Y-104877554D01*
X157250505Y-104877558D01*
X157378287Y-104970396D01*
X157397006Y-104983996D01*
X157502484Y-105037740D01*
X157558360Y-105066211D01*
X157558363Y-105066212D01*
X157644476Y-105094191D01*
X157730591Y-105122171D01*
X157813429Y-105135291D01*
X157909449Y-105150500D01*
X157909454Y-105150500D01*
X158090551Y-105150500D01*
X158177259Y-105136765D01*
X158269409Y-105122171D01*
X158441639Y-105066211D01*
X158602994Y-104983996D01*
X158749501Y-104877553D01*
X158877553Y-104749501D01*
X158983996Y-104602994D01*
X159066211Y-104441639D01*
X159122171Y-104269409D01*
X159136765Y-104177259D01*
X159150500Y-104090551D01*
X159150500Y-103909448D01*
X159134019Y-103805397D01*
X159122171Y-103730591D01*
X159066211Y-103558361D01*
X159066211Y-103558360D01*
X159037740Y-103502484D01*
X158983996Y-103397006D01*
X158956223Y-103358779D01*
X158877558Y-103250505D01*
X158877554Y-103250500D01*
X158749501Y-103122447D01*
X158719044Y-103100319D01*
X158676378Y-103044989D01*
X158670399Y-102975376D01*
X158703004Y-102913580D01*
X158719044Y-102899681D01*
X158749501Y-102877553D01*
X158877553Y-102749501D01*
X158983996Y-102602994D01*
X159066211Y-102441639D01*
X159122171Y-102269409D01*
X159136765Y-102177259D01*
X159150500Y-102090551D01*
X159150500Y-101909448D01*
X159129131Y-101774537D01*
X159122171Y-101730591D01*
X159066211Y-101558361D01*
X159066211Y-101558360D01*
X159037740Y-101502484D01*
X158983996Y-101397006D01*
X158942354Y-101339690D01*
X158877558Y-101250505D01*
X158877554Y-101250500D01*
X158749501Y-101122447D01*
X158719044Y-101100319D01*
X158676378Y-101044989D01*
X158670399Y-100975376D01*
X158703004Y-100913580D01*
X158719044Y-100899681D01*
X158720444Y-100898664D01*
X158749501Y-100877553D01*
X158877553Y-100749501D01*
X158983996Y-100602994D01*
X159066211Y-100441639D01*
X159122171Y-100269409D01*
X159143795Y-100132882D01*
X159150500Y-100090551D01*
X159150500Y-99909448D01*
X159134019Y-99805397D01*
X159122171Y-99730591D01*
X159066211Y-99558361D01*
X159066211Y-99558360D01*
X159037740Y-99502484D01*
X158983996Y-99397006D01*
X158912344Y-99298385D01*
X158877558Y-99250505D01*
X158877554Y-99250500D01*
X158749499Y-99122445D01*
X158749494Y-99122441D01*
X158602997Y-99016006D01*
X158602996Y-99016005D01*
X158602994Y-99016004D01*
X158551300Y-98989664D01*
X158441639Y-98933788D01*
X158441636Y-98933787D01*
X158269410Y-98877829D01*
X158090551Y-98849500D01*
X158090546Y-98849500D01*
X157909454Y-98849500D01*
X157909449Y-98849500D01*
X157730589Y-98877829D01*
X157558363Y-98933787D01*
X157558360Y-98933788D01*
X157397002Y-99016006D01*
X157250505Y-99122441D01*
X157250500Y-99122445D01*
X157122445Y-99250500D01*
X157122441Y-99250505D01*
X157087655Y-99298385D01*
X157032326Y-99341051D01*
X156987337Y-99349500D01*
X156120808Y-99349500D01*
X156053769Y-99329815D01*
X156033127Y-99313181D01*
X152712210Y-95992263D01*
X152629395Y-95909448D01*
X156849500Y-95909448D01*
X156849500Y-96090551D01*
X156877829Y-96269410D01*
X156933787Y-96441636D01*
X156933788Y-96441639D01*
X157016006Y-96602997D01*
X157122441Y-96749494D01*
X157122445Y-96749499D01*
X157250500Y-96877554D01*
X157250505Y-96877558D01*
X157260648Y-96884927D01*
X157397006Y-96983996D01*
X157502484Y-97037740D01*
X157558360Y-97066211D01*
X157558363Y-97066212D01*
X157611178Y-97083372D01*
X157730591Y-97122171D01*
X157813429Y-97135291D01*
X157909449Y-97150500D01*
X157909454Y-97150500D01*
X158090551Y-97150500D01*
X158177259Y-97136765D01*
X158269409Y-97122171D01*
X158441639Y-97066211D01*
X158602994Y-96983996D01*
X158749501Y-96877553D01*
X158877553Y-96749501D01*
X158983996Y-96602994D01*
X159066211Y-96441639D01*
X159122171Y-96269409D01*
X159136765Y-96177259D01*
X159150500Y-96090551D01*
X159150500Y-95909448D01*
X159134019Y-95805397D01*
X159122171Y-95730591D01*
X159066211Y-95558361D01*
X159066211Y-95558360D01*
X159014394Y-95456666D01*
X158983996Y-95397006D01*
X158909686Y-95294726D01*
X158877558Y-95250505D01*
X158877554Y-95250500D01*
X158749499Y-95122445D01*
X158749494Y-95122441D01*
X158602997Y-95016006D01*
X158602996Y-95016005D01*
X158602994Y-95016004D01*
X158551300Y-94989664D01*
X158441639Y-94933788D01*
X158441636Y-94933787D01*
X158269410Y-94877829D01*
X158090551Y-94849500D01*
X158090546Y-94849500D01*
X157909454Y-94849500D01*
X157909449Y-94849500D01*
X157730589Y-94877829D01*
X157558363Y-94933787D01*
X157558360Y-94933788D01*
X157397002Y-95016006D01*
X157250505Y-95122441D01*
X157250500Y-95122445D01*
X157122445Y-95250500D01*
X157122441Y-95250505D01*
X157016006Y-95397002D01*
X156933788Y-95558360D01*
X156933787Y-95558363D01*
X156877829Y-95730589D01*
X156849500Y-95909448D01*
X152629395Y-95909448D01*
X152014673Y-95294726D01*
X151948491Y-95250505D01*
X151908127Y-95223535D01*
X151908122Y-95223533D01*
X151789744Y-95174499D01*
X151789738Y-95174497D01*
X151664071Y-95149500D01*
X151664069Y-95149500D01*
X147035931Y-95149500D01*
X147035929Y-95149500D01*
X146910261Y-95174497D01*
X146910255Y-95174499D01*
X146791875Y-95223533D01*
X146791866Y-95223538D01*
X146685331Y-95294723D01*
X146685327Y-95294726D01*
X145966873Y-96013181D01*
X145905550Y-96046666D01*
X145879192Y-96049500D01*
X142955808Y-96049500D01*
X142888769Y-96029815D01*
X142868127Y-96013181D01*
X140521819Y-93666873D01*
X140488334Y-93605550D01*
X140485500Y-93579192D01*
X140485500Y-93060808D01*
X140505185Y-92993769D01*
X140521819Y-92973127D01*
X142990273Y-90504673D01*
X142990277Y-90504669D01*
X143061465Y-90398127D01*
X143110501Y-90279744D01*
X143135499Y-90154069D01*
X143135499Y-90135739D01*
X148159499Y-90135739D01*
X148192951Y-90303909D01*
X148192954Y-90303919D01*
X148258570Y-90462332D01*
X148353839Y-90604913D01*
X148475086Y-90726160D01*
X148617667Y-90821429D01*
X148776080Y-90887045D01*
X148776085Y-90887047D01*
X148776089Y-90887047D01*
X148776090Y-90887048D01*
X148944260Y-90920500D01*
X148944263Y-90920500D01*
X149115739Y-90920500D01*
X149228881Y-90897993D01*
X149283915Y-90887047D01*
X149363125Y-90854237D01*
X149442332Y-90821429D01*
X149442333Y-90821428D01*
X149442336Y-90821427D01*
X149584911Y-90726162D01*
X149706162Y-90604911D01*
X149801427Y-90462336D01*
X149836729Y-90377109D01*
X154272500Y-90377109D01*
X154272500Y-90570332D01*
X154302725Y-90761162D01*
X154362429Y-90944915D01*
X154450147Y-91117070D01*
X154563715Y-91273384D01*
X154700336Y-91410005D01*
X154856650Y-91523573D01*
X155028805Y-91611291D01*
X155120681Y-91641143D01*
X155212560Y-91670996D01*
X155300943Y-91684994D01*
X155403389Y-91701221D01*
X155403394Y-91701221D01*
X155596611Y-91701221D01*
X155689123Y-91686567D01*
X155787440Y-91670996D01*
X155971197Y-91611290D01*
X156143350Y-91523573D01*
X156299663Y-91410006D01*
X156436285Y-91273384D01*
X156549852Y-91117071D01*
X156637569Y-90944918D01*
X156697275Y-90761161D01*
X156719259Y-90622360D01*
X156727500Y-90570332D01*
X156727500Y-90377109D01*
X156709916Y-90266094D01*
X156697275Y-90186281D01*
X156667422Y-90094402D01*
X156637570Y-90002526D01*
X156549852Y-89830371D01*
X156436284Y-89674057D01*
X156299663Y-89537436D01*
X156143349Y-89423868D01*
X155971194Y-89336150D01*
X155787441Y-89276446D01*
X155596611Y-89246221D01*
X155596606Y-89246221D01*
X155403394Y-89246221D01*
X155403389Y-89246221D01*
X155212558Y-89276446D01*
X155028805Y-89336150D01*
X154856650Y-89423868D01*
X154700336Y-89537436D01*
X154563715Y-89674057D01*
X154450147Y-89830371D01*
X154362429Y-90002526D01*
X154302725Y-90186279D01*
X154272500Y-90377109D01*
X149836729Y-90377109D01*
X149867047Y-90303915D01*
X149890446Y-90186281D01*
X149900500Y-90135739D01*
X149900500Y-89964260D01*
X149867048Y-89796090D01*
X149867047Y-89796089D01*
X149867047Y-89796085D01*
X149861160Y-89781873D01*
X149801429Y-89637667D01*
X149706160Y-89495086D01*
X149584913Y-89373839D01*
X149442332Y-89278570D01*
X149283919Y-89212954D01*
X149283909Y-89212951D01*
X149115739Y-89179500D01*
X149115737Y-89179500D01*
X148944263Y-89179500D01*
X148944261Y-89179500D01*
X148776090Y-89212951D01*
X148776080Y-89212954D01*
X148617667Y-89278570D01*
X148475086Y-89373839D01*
X148353839Y-89495086D01*
X148258570Y-89637667D01*
X148192954Y-89796080D01*
X148192951Y-89796090D01*
X148159500Y-89964260D01*
X148159500Y-89964263D01*
X148159500Y-90135737D01*
X148159500Y-90135739D01*
X148159499Y-90135739D01*
X143135499Y-90135739D01*
X143135499Y-90025931D01*
X143110501Y-89900256D01*
X143061465Y-89781873D01*
X142990277Y-89675331D01*
X142990275Y-89675329D01*
X142990273Y-89675326D01*
X142899673Y-89584726D01*
X142899669Y-89584723D01*
X142793127Y-89513535D01*
X142748587Y-89495086D01*
X142674744Y-89464499D01*
X142674736Y-89464497D01*
X142549073Y-89439501D01*
X142549069Y-89439501D01*
X142420931Y-89439501D01*
X142420926Y-89439501D01*
X142295263Y-89464497D01*
X142295255Y-89464499D01*
X142176874Y-89513534D01*
X142070326Y-89584726D01*
X139329726Y-92325326D01*
X139258534Y-92431874D01*
X139209499Y-92550255D01*
X139209497Y-92550261D01*
X139184500Y-92675928D01*
X139184500Y-92675931D01*
X139184500Y-94064069D01*
X139184500Y-94064071D01*
X139184499Y-94064071D01*
X137743741Y-94064071D01*
X138029111Y-93504002D01*
X138032192Y-93498329D01*
X138385500Y-92886381D01*
X138388849Y-92880916D01*
X138773715Y-92288275D01*
X138777345Y-92282994D01*
X139192690Y-91711321D01*
X139196604Y-91706219D01*
X139641290Y-91157076D01*
X139645500Y-91152148D01*
X140118301Y-90627049D01*
X140122733Y-90622379D01*
X140622379Y-90122733D01*
X140627049Y-90118301D01*
X141152156Y-89645493D01*
X141157084Y-89641284D01*
X141161551Y-89637667D01*
X141706219Y-89196604D01*
X141711321Y-89192690D01*
X142282994Y-88777345D01*
X142288275Y-88773715D01*
X142880916Y-88388849D01*
X142886381Y-88385500D01*
X143498329Y-88032192D01*
X143504002Y-88029111D01*
X144133609Y-87708310D01*
X144139405Y-87705546D01*
X144784930Y-87418139D01*
X144790893Y-87415669D01*
X145450570Y-87162444D01*
X145456643Y-87160294D01*
X146128676Y-86941936D01*
X146134831Y-86940113D01*
X146817385Y-86757224D01*
X146823649Y-86755720D01*
X147514828Y-86608805D01*
X147521132Y-86607637D01*
X148191085Y-86501527D01*
X148210483Y-86500000D01*
X151789517Y-86500000D01*
X151808915Y-86501527D01*
G37*
G04 #@! TD.AperFunction*
G04 #@! TD*
M02*
