G04 #@! TF.GenerationSoftware,KiCad,Pcbnew,9.0.3*
G04 #@! TF.CreationDate,2026-03-05T20:45:27-08:00*
G04 #@! TF.ProjectId,harp.peripheral.poke-port,68617270-2e70-4657-9269-70686572616c,rev?*
G04 #@! TF.SameCoordinates,Original*
G04 #@! TF.FileFunction,Soldermask,Top*
G04 #@! TF.FilePolarity,Negative*
%FSLAX46Y46*%
G04 Gerber Fmt 4.6, Leading zero omitted, Abs format (unit mm)*
G04 Created by KiCad (PCBNEW 9.0.3) date 2026-03-05 20:45:27*
%MOMM*%
%LPD*%
G01*
G04 APERTURE LIST*
G04 Aperture macros list*
%AMRoundRect*
0 Rectangle with rounded corners*
0 $1 Rounding radius*
0 $2 $3 $4 $5 $6 $7 $8 $9 X,Y pos of 4 corners*
0 Add a 4 corners polygon primitive as box body*
4,1,4,$2,$3,$4,$5,$6,$7,$8,$9,$2,$3,0*
0 Add four circle primitives for the rounded corners*
1,1,$1+$1,$2,$3*
1,1,$1+$1,$4,$5*
1,1,$1+$1,$6,$7*
1,1,$1+$1,$8,$9*
0 Add four rect primitives between the rounded corners*
20,1,$1+$1,$2,$3,$4,$5,0*
20,1,$1+$1,$4,$5,$6,$7,0*
20,1,$1+$1,$6,$7,$8,$9,0*
20,1,$1+$1,$8,$9,$2,$3,0*%
G04 Aperture macros list end*
%ADD10C,1.500000*%
%ADD11RoundRect,0.140000X-0.170000X0.140000X-0.170000X-0.140000X0.170000X-0.140000X0.170000X0.140000X0*%
%ADD12RoundRect,0.250000X-0.475000X0.250000X-0.475000X-0.250000X0.475000X-0.250000X0.475000X0.250000X0*%
%ADD13R,0.280000X0.280000*%
%ADD14O,0.850000X0.280000*%
%ADD15R,0.230000X0.600000*%
%ADD16R,0.250000X0.700000*%
%ADD17C,0.600000*%
%ADD18R,0.650000X0.900000*%
%ADD19R,1.700000X2.150000*%
%ADD20RoundRect,0.200000X-0.200000X-0.275000X0.200000X-0.275000X0.200000X0.275000X-0.200000X0.275000X0*%
%ADD21C,2.200000*%
%ADD22C,2.800000*%
%ADD23RoundRect,0.200000X0.200000X0.275000X-0.200000X0.275000X-0.200000X-0.275000X0.200000X-0.275000X0*%
%ADD24RoundRect,0.135000X-0.185000X0.135000X-0.185000X-0.135000X0.185000X-0.135000X0.185000X0.135000X0*%
%ADD25RoundRect,0.225000X-0.250000X0.225000X-0.250000X-0.225000X0.250000X-0.225000X0.250000X0.225000X0*%
%ADD26RoundRect,0.250000X0.250000X0.475000X-0.250000X0.475000X-0.250000X-0.475000X0.250000X-0.475000X0*%
%ADD27RoundRect,0.225000X0.225000X0.250000X-0.225000X0.250000X-0.225000X-0.250000X0.225000X-0.250000X0*%
%ADD28RoundRect,0.102000X-0.450000X-0.600000X0.450000X-0.600000X0.450000X0.600000X-0.450000X0.600000X0*%
%ADD29RoundRect,0.250000X0.475000X-0.250000X0.475000X0.250000X-0.475000X0.250000X-0.475000X-0.250000X0*%
%ADD30RoundRect,0.075000X-0.550000X-0.075000X0.550000X-0.075000X0.550000X0.075000X-0.550000X0.075000X0*%
%ADD31C,1.800000*%
%ADD32C,3.200000*%
%ADD33C,1.240000*%
G04 APERTURE END LIST*
D10*
G04 #@! TO.C,REF\u002A\u002A*
X153000000Y-105900000D03*
G04 #@! TD*
D11*
G04 #@! TO.C,C7*
X145410000Y-100330000D03*
X145410000Y-101290000D03*
G04 #@! TD*
D12*
G04 #@! TO.C,C4*
X153000000Y-94350000D03*
X153000000Y-96250000D03*
G04 #@! TD*
D13*
G04 #@! TO.C,U1*
X142440000Y-92400000D03*
D14*
X142725000Y-92400000D03*
D13*
X142440000Y-92900000D03*
D14*
X142725000Y-92900000D03*
D13*
X142440000Y-93400000D03*
D14*
X142725000Y-93400000D03*
D13*
X142440000Y-93900000D03*
D14*
X142725000Y-93900000D03*
D13*
X142440000Y-94400000D03*
D14*
X142725000Y-94400000D03*
X145675000Y-94400000D03*
D13*
X145960000Y-94400000D03*
D14*
X145675000Y-93900000D03*
D13*
X145960000Y-93900000D03*
D14*
X145675000Y-93400000D03*
D13*
X145960000Y-93400000D03*
D14*
X145675000Y-92900000D03*
D13*
X145960000Y-92900000D03*
D14*
X145675000Y-92400000D03*
D13*
X145960000Y-92400000D03*
D15*
X143600000Y-91975000D03*
D16*
X143600000Y-91975000D03*
D15*
X143600000Y-94825000D03*
D16*
X143600000Y-94825000D03*
D17*
X143700000Y-92900000D03*
X143700000Y-93900000D03*
D18*
X143765000Y-92840000D03*
X143765000Y-93960000D03*
D15*
X144000000Y-91975000D03*
D16*
X144000000Y-91975000D03*
D15*
X144000000Y-94825000D03*
D16*
X144000000Y-94825000D03*
D17*
X144200000Y-93400000D03*
D19*
X144200000Y-93400000D03*
D15*
X144400000Y-91975000D03*
D16*
X144400000Y-91975000D03*
D15*
X144400000Y-94825000D03*
D16*
X144400000Y-94825000D03*
D18*
X144635000Y-92840000D03*
X144635000Y-93960000D03*
D17*
X144700000Y-92900000D03*
X144700000Y-93900000D03*
D15*
X144800000Y-91975000D03*
D16*
X144800000Y-91975000D03*
D15*
X144800000Y-94825000D03*
D16*
X144800000Y-94825000D03*
G04 #@! TD*
D20*
G04 #@! TO.C,R1*
X148775000Y-104200000D03*
X150425000Y-104200000D03*
G04 #@! TD*
G04 #@! TO.C,R2*
X148875000Y-106000000D03*
X150525000Y-106000000D03*
G04 #@! TD*
D12*
G04 #@! TO.C,C5*
X150800000Y-93650000D03*
X150800000Y-95550000D03*
G04 #@! TD*
D21*
G04 #@! TO.C,REF\u002A\u002A*
X144500000Y-109526280D03*
G04 #@! TD*
D22*
G04 #@! TO.C,REF\u002A\u002A*
X140000000Y-100000000D03*
G04 #@! TD*
D20*
G04 #@! TO.C,R4*
X149175000Y-108200000D03*
X150825000Y-108200000D03*
G04 #@! TD*
D23*
G04 #@! TO.C,R3*
X150825000Y-91800000D03*
X149175000Y-91800000D03*
G04 #@! TD*
D24*
G04 #@! TO.C,R6*
X144410000Y-99400000D03*
X144410000Y-100420000D03*
G04 #@! TD*
D25*
G04 #@! TO.C,C8*
X141800000Y-104525000D03*
X141800000Y-106075000D03*
G04 #@! TD*
D26*
G04 #@! TO.C,C6*
X141050000Y-95200000D03*
X139150000Y-95200000D03*
G04 #@! TD*
D27*
G04 #@! TO.C,C1*
X146260000Y-96790000D03*
X144710000Y-96790000D03*
G04 #@! TD*
D10*
G04 #@! TO.C,REF\u002A\u002A*
X140000000Y-104900000D03*
G04 #@! TD*
D12*
G04 #@! TO.C,C3*
X148800000Y-93650000D03*
X148800000Y-95550000D03*
G04 #@! TD*
D21*
G04 #@! TO.C,REF\u002A\u002A*
X155500000Y-90473721D03*
G04 #@! TD*
D28*
G04 #@! TO.C,L1*
X142835000Y-89690000D03*
X145535000Y-89690000D03*
G04 #@! TD*
D24*
G04 #@! TO.C,R5*
X145410000Y-98400000D03*
X145410000Y-99420000D03*
G04 #@! TD*
D29*
G04 #@! TO.C,C2*
X140985000Y-93140000D03*
X140985000Y-91240000D03*
G04 #@! TD*
D30*
G04 #@! TO.C,U3*
X143900000Y-103150000D03*
X143900000Y-103650000D03*
X143900000Y-104150000D03*
X143900000Y-104650000D03*
X146700000Y-104650000D03*
X146700000Y-104150000D03*
X146700000Y-103650000D03*
X146700000Y-103150000D03*
G04 #@! TD*
D31*
G04 #@! TO.C,J1*
X158000000Y-96000000D03*
X158000000Y-104000000D03*
X158000000Y-102000000D03*
X158000000Y-100000000D03*
X158000000Y-98000000D03*
G04 #@! TD*
D10*
G04 #@! TO.C,REF\u002A\u002A*
X150000000Y-88000000D03*
G04 #@! TD*
D32*
G04 #@! TO.C,U2*
X150000000Y-100000000D03*
D33*
X149030000Y-90050000D03*
X150970000Y-109950000D03*
X149030000Y-109950000D03*
X150970000Y-90050000D03*
G04 #@! TD*
M02*
